<svg width="390" height="481" viewBox="0 0 390 481" fill="none" xmlns="http://www.w3.org/2000/svg">
<g filter="url(#filter0_ddddd_422_3815)">
<path d="M117.593 311.28H346.952C368.161 275.333 376.872 233.61 371.771 192.394C370.032 178.687 366.647 164.89 359.151 153.193C351.655 141.496 339.55 132.076 325.611 130.189C307.671 127.775 290.706 137.653 273.523 143.307C247.845 151.764 219.515 150.847 193.479 143.521C165.009 135.499 137.826 119.913 108.217 120.876C81.2838 121.754 56.0196 137.019 40.092 158.312C24.1644 179.604 16.965 206.329 16.263 232.718C15.561 259.106 21.0132 285.319 28.4856 310.646L117.593 311.28Z" fill="#A1CED5"/>
<path d="M66.2297 127.614C74.5289 122.373 83.8499 118.446 93.6623 117.384C96.9383 117.018 100.792 116.666 102.5 113.9C103.919 111.608 103.069 108.453 101.158 106.513C99.2471 104.572 96.5405 103.625 93.8729 102.983C80.3399 99.7359 65.7149 103.082 53.8199 110.218C49.3356 112.779 45.3698 116.124 42.1199 120.089C38.8695 124.092 37.0062 129.005 36.8003 134.116C36.6764 136.777 37.3024 139.42 38.6099 141.756C39.7487 143.674 41.8625 146.195 44.3273 145.255C46.7921 144.315 49.2023 140.938 51.1367 139.227C55.839 134.963 60.8866 131.079 66.2297 127.614Z" fill="#A1CED5"/>
<path d="M295.643 330.762H294.263L316.134 311.241H317.514L295.643 330.762Z" fill="#F58249"/>
<path d="M226.153 331.87L227.393 330.762H295.643L294.411 331.87H226.153Z" fill="#F58249"/>
<path d="M316.134 311.241L298.701 326.804L294.263 330.762H227.393L237.541 321.708L249.257 311.241H316.134Z" fill="#F5AD49"/>
<g style="mix-blend-mode:screen" opacity="0.5">
<path d="M298.74 326.804L294.302 330.762H227.393L237.533 321.708C243.142 320.516 249.132 320.501 254.92 320.593C265.45 320.761 276.034 321.105 286.385 323.022C290.66 323.726 294.817 324.998 298.74 326.804Z" fill="#F5AD49"/>
</g>
<path d="M345.205 75.4253H223.33V304.916H345.205V75.4253Z" fill="#D9DAD5"/>
<path d="M338.481 84.4709H230.045V304.915H338.481V84.4709Z" fill="#1C484F"/>
<g style="mix-blend-mode:multiply" opacity="0.5">
<path d="M338.481 274.57H230.045V304.916H338.481V274.57Z" fill="#1F4F57"/>
</g>
<path d="M271.838 282.232L338.512 304.915V84.4709L271.838 91.5456V282.232Z" fill="#E6E6E6"/>
<path d="M275.855 118.614V100.431L333.161 95.6255V116.154H332.865L275.855 118.614ZM276.479 100.989V117.98L332.537 115.566V96.2902L276.479 100.989Z" fill="#80C8D4"/>
<path d="M333.161 294.861L332.748 294.731L275.855 276.395V227.125L333.161 239.166V294.861ZM276.479 275.929L332.537 294.021V239.655L276.479 227.881V275.929Z" fill="#80C8D4"/>
<path d="M333.161 219.386L304.473 214.557V126.369L333.161 125.735V219.386ZM305.081 214.038L332.522 218.622V126.361L305.081 126.965V214.038Z" fill="#80C8D4"/>
<path d="M301.08 213.984L275.855 209.752V127.003L301.08 126.476V213.984ZM276.494 209.225L300.456 213.259V127.072L276.494 127.599V209.225Z" fill="#80C8D4"/>
<path d="M312.694 228.462L293.28 224.68V217.445L312.686 220.944L312.694 228.462ZM293.912 224.176L312.07 227.721V221.456L293.912 218.156V224.176Z" fill="#80C8D4"/>
<path d="M13.2209 311.081H369.696" stroke="#1C484F" stroke-miterlimit="10"/>
<path style="mix-blend-mode:multiply" opacity="0.5" d="M94.5437 310.264L61.0271 329.868H10.0073L48.2663 308.636L94.5437 310.264Z" fill="url(#paint0_linear_422_3815)"/>
<path d="M94.5436 264.049V267.823H36.9172L46.2616 264.737L48.352 264.049H94.5436Z" fill="#C7762F"/>
<path d="M86.962 267.823H36.9172V314.565H86.962V267.823Z" fill="#F5AD49"/>
<path d="M60.2004 307.2H39.1716V310.065H60.2004V307.2Z" fill="#C7762F"/>
<path d="M53.2818 303.877H39.1716V305.962H53.2818V303.877Z" fill="#C7762F"/>
<path d="M83.101 274.57C83.1025 275.312 82.8792 276.038 82.4594 276.656C82.0395 277.274 81.4419 277.756 80.7422 278.041C80.0425 278.326 79.2723 278.401 78.5288 278.257C77.7854 278.114 77.1023 277.757 76.5659 277.233C76.0295 276.708 75.664 276.04 75.5156 275.312C75.3672 274.584 75.4426 273.83 75.7322 273.144C76.0218 272.458 76.5127 271.871 77.1427 271.459C77.7726 271.046 78.5134 270.826 79.2712 270.826C80.2856 270.826 81.2585 271.22 81.9765 271.922C82.6945 272.624 83.0989 273.576 83.101 274.57Z" fill="#C7762F"/>
<g style="mix-blend-mode:screen" opacity="0.5">
<path d="M36.9096 314.565H39.1716L39.1716 267.824H36.9096L36.9096 314.565Z" fill="#F5AD49"/>
</g>
<path d="M94.5438 264.049V310.264L86.9622 314.565V267.823L88.9824 266.823L94.5438 264.049Z" fill="#E38C3B"/>
<g style="mix-blend-mode:multiply" opacity="0.5">
<path d="M94.5438 301.6V310.264L86.9622 314.565V267.816L88.9824 266.815C88.7884 273.923 89.1064 281.036 89.934 288.1C90.1938 291.449 90.9668 294.741 92.2272 297.864C92.8202 299.208 93.5998 300.465 94.5438 301.6Z" fill="#E38C3B"/>
</g>
<g style="mix-blend-mode:multiply" opacity="0.5">
<path d="M94.5437 264.049V264.569C78.5177 266.564 62.3018 266.621 46.2617 264.737L48.3521 264.049H94.5437Z" fill="#C7762F"/>
</g>
<path d="M86.9622 230.67V233.451H44.499L51.3864 231.174L52.923 230.67H86.9622Z" fill="#C7762F"/>
<path d="M81.3696 233.451H44.499V267.885H81.3696V233.451Z" fill="#F5AD49"/>
<path d="M61.659 262.46H46.1682V264.576H61.659V262.46Z" fill="#C7762F"/>
<path d="M56.5656 260.008H46.1682V261.543H56.5656V260.008Z" fill="#C7762F"/>
<path d="M78.5303 238.425C78.5303 238.972 78.3647 239.507 78.0544 239.961C77.7441 240.416 77.3031 240.771 76.7872 240.98C76.2713 241.189 75.7035 241.244 75.1558 241.137C74.6081 241.031 74.105 240.767 73.7101 240.38C73.3152 239.994 73.0463 239.501 72.9373 238.964C72.8284 238.428 72.8843 237.872 73.098 237.366C73.3117 236.861 73.6736 236.429 74.1379 236.125C74.6023 235.821 75.1482 235.659 75.7067 235.659C76.0775 235.659 76.4446 235.731 76.7872 235.87C77.1298 236.009 77.441 236.212 77.7032 236.469C77.9654 236.726 78.1734 237.031 78.3153 237.366C78.4572 237.702 78.5303 238.062 78.5303 238.425Z" fill="#C7762F"/>
<g style="mix-blend-mode:screen" opacity="0.5">
<path d="M44.5068 267.892H46.1682L46.1682 233.459H44.5068L44.5068 267.892Z" fill="#F5AD49"/>
</g>
<path d="M86.9622 230.67V264.722L81.3696 267.892V233.451L82.8672 232.71L86.9622 230.67Z" fill="#E38C3B"/>
<g style="mix-blend-mode:multiply" opacity="0.5">
<path d="M86.9622 258.335V264.76L81.3696 267.93V233.436L82.8672 232.672C82.7199 237.91 82.9519 243.151 83.5614 248.357C83.7475 250.839 84.3182 253.278 85.254 255.592C85.6881 256.581 86.2632 257.504 86.9622 258.335Z" fill="#E38C3B"/>
</g>
<g style="mix-blend-mode:multiply" opacity="0.5">
<path d="M86.962 230.67V231.052C75.1536 232.524 63.2049 232.565 51.3862 231.174L52.9462 230.67H86.962Z" fill="#C7762F"/>
</g>
<path d="M305.643 201.875C308.471 204.802 311.114 207.894 313.56 211.135C315.986 214.391 318.23 217.773 320.284 221.265C324.363 228.279 327.8 235.631 330.556 243.238C333.287 250.847 335.545 258.611 337.319 266.486C338.216 270.421 339.019 274.371 339.76 278.328C340.501 282.286 341.133 286.266 341.749 290.247L340.618 290.423C339.953 286.455 339.243 282.5 338.489 278.558C337.748 274.615 336.929 270.681 336.047 266.762C334.312 258.928 332.116 251.199 329.472 243.612C326.845 236.017 323.559 228.656 319.652 221.609C317.69 218.088 315.54 214.67 313.209 211.372C310.887 208.058 308.36 204.886 305.643 201.875Z" fill="#1C2540"/>
<path d="M328.427 174.012C332.218 182.981 336.016 191.981 338.863 201.31C339.581 203.64 340.236 205.985 340.798 208.354C341.094 209.538 341.351 210.73 341.578 211.922C341.804 213.113 342.014 214.321 342.241 215.512C343.048 220.319 343.587 225.165 343.855 230.028C344.44 239.747 344.237 249.48 344.198 259.198C344.198 264.049 344.198 268.908 344.378 273.714C344.557 278.52 344.932 283.394 345.532 288.23L344.393 288.367C343.84 283.524 343.528 278.649 343.372 273.783C343.216 268.916 343.27 264.049 343.333 259.19C343.473 249.465 343.769 239.754 343.286 230.059C343.06 225.211 342.568 220.378 341.812 215.581C341.609 214.389 341.414 213.19 341.195 211.998C340.977 210.806 340.712 209.614 340.415 208.438C339.869 206.069 339.248 203.719 338.551 201.386C335.845 192.058 332.132 183.012 328.427 174.012Z" fill="#1C2540"/>
<path d="M375.039 203.678C355.834 227.322 346.389 257.167 348.574 287.305L347.435 287.389C345.602 257.083 355.453 227.208 375.039 203.678Z" fill="#1C2540"/>
<path d="M352.31 313.029H332.943C332.059 313.031 331.207 312.709 330.553 312.127C329.899 311.544 329.491 310.744 329.41 309.882L327.226 287.359H358.02L355.836 309.882C355.753 310.742 355.345 311.54 354.694 312.122C354.042 312.704 353.192 313.027 352.31 313.029Z" fill="#FF4846"/>
<g style="mix-blend-mode:multiply" opacity="0.5">
<path d="M357.38 294.029L358.028 287.359H327.226L327.873 294.029H357.38Z" fill="#871A1A"/>
</g>
<path d="M359.939 282.867H325.314V289.047H359.939V282.867Z" fill="#FF4846"/>
<path d="M379.08 208.795C377.996 210.721 376.264 212.21 374.681 213.777C373.895 214.556 373.139 215.363 372.411 216.199C369.555 219.486 367.191 223.154 365.391 227.093C364.065 229.977 363.058 232.991 362.388 236.085C362.333 236.338 362.279 236.574 362.232 236.849C361.389 241.059 361.062 245.383 359.798 249.494C359.394 250.747 358.89 251.968 358.293 253.146C356.694 256.354 354.12 259.884 351.171 259.128C350.776 259.031 350.399 258.871 350.056 258.654C349.312 258.181 348.681 257.555 348.207 256.82C346.437 254.146 346.14 249.998 346.382 246.888C346.429 246.27 346.499 245.697 346.577 245.177C347.24 241.647 348.318 238.204 349.791 234.917C350.368 233.503 350.969 232.082 351.53 230.661C352.583 228.01 353.535 225.313 354.541 222.639C355.533 219.824 356.695 217.068 358.02 214.388C359.096 212.293 360.376 210.305 361.842 208.452C363.989 205.664 366.741 203.378 369.899 201.759C371.378 200.968 373.028 200.533 374.712 200.491C375.553 200.48 376.386 200.659 377.145 201.012C377.905 201.366 378.572 201.885 379.095 202.531C380.437 204.318 380.133 206.878 379.08 208.795Z" fill="#80D4A9"/>
<g style="mix-blend-mode:screen" opacity="0.19">
<path d="M379.08 208.613C377.996 210.539 376.264 212.029 374.681 213.595C373.895 214.374 373.139 215.181 372.411 216.017C371.795 216.315 371.178 216.628 370.578 216.964C368.238 218.293 366.023 220.234 365.406 222.816C365.168 224.171 365.168 225.556 365.406 226.911C364.08 229.795 363.073 232.81 362.403 235.904C362.349 236.156 362.294 236.393 362.247 236.668C360.461 238.677 358.464 240.617 357.692 243.123C357.192 245.129 357.176 247.222 357.645 249.235C357.864 250.481 358.137 251.718 358.308 252.971C356.709 256.18 354.135 259.71 351.187 258.953C350.791 258.856 350.414 258.696 350.072 258.48C349.327 258.007 348.697 257.381 348.223 256.646C346.452 253.972 346.156 249.824 346.398 246.714C347.669 245.37 349.26 244.269 350.087 242.642C351.327 240.205 350.532 237.485 349.806 234.742C350.384 233.329 350.984 231.908 351.546 230.487C352.599 227.836 353.55 225.139 354.557 222.465C356.686 221.051 358.893 219.646 360.118 217.522C361.491 215.138 361.382 212.25 361.733 209.538C361.787 209.133 361.857 208.728 361.928 208.323C364.075 205.536 366.827 203.25 369.985 201.63C371.464 200.839 373.113 200.404 374.798 200.362C375.639 200.352 376.471 200.53 377.231 200.884C377.991 201.237 378.658 201.757 379.181 202.402C380.437 204.136 380.133 206.696 379.08 208.613Z" fill="#C8FFC2"/>
</g>
<path d="M349.713 220.692C349.541 223.985 350.056 227.27 350.251 230.563C350.251 231.19 350.314 231.809 350.314 232.435C350.428 235.112 349.93 237.78 348.855 240.243C347.396 243.299 343.106 247.509 339.846 244.483C338.636 243.327 337.711 241.916 337.139 240.358C336.163 237.596 335.739 234.675 335.891 231.755C336.016 228.004 336.671 224.245 336.625 220.517C336.618 219.391 336.529 218.268 336.359 217.155C336.152 215.889 335.836 214.642 335.416 213.427C333.146 206.856 328.162 201.203 325.315 194.716C324.684 193.303 324.162 191.844 323.755 190.354C322.461 185.662 322.232 180.749 323.084 175.96C323.201 175.296 323.341 174.639 323.505 173.981C324.207 171.116 325.79 167.938 328.661 167.274C328.77 167.274 328.887 167.228 329.004 167.205C332.179 166.716 334.831 169.497 336.625 172.094C338.703 175.148 340.609 178.311 342.334 181.568C343.114 182.989 343.894 184.418 344.627 185.846C346.967 190.278 349.37 194.869 350.657 199.652C351.327 202.035 351.65 204.499 351.616 206.971V207.131C351.499 211.708 349.955 216.139 349.713 220.692Z" fill="#80D4A9"/>
<g style="mix-blend-mode:screen" opacity="0.19">
<path d="M349.916 231.165C350.056 231.647 350.189 232.128 350.314 232.617C350.428 235.294 349.93 237.962 348.855 240.425C347.396 243.481 343.106 247.691 339.846 244.665C338.636 243.509 337.711 242.098 337.139 240.54C338.014 240.469 338.838 240.111 339.479 239.524C340.555 238.427 341.199 236.992 341.297 235.474C341.851 230.287 338.489 225.649 336.617 220.699C336.61 219.573 336.522 218.45 336.352 217.337C336.144 216.071 335.828 214.823 335.408 213.609C335.486 208.773 336.71 203.753 334.191 199.696C331.672 195.639 326.563 194.196 323.755 190.528C322.461 185.836 322.232 180.923 323.084 176.135C323.193 175.798 323.318 175.462 323.443 175.134C324.143 173.034 325.197 171.063 326.563 169.304C327.165 168.599 327.86 167.974 328.63 167.448C328.739 167.448 328.856 167.402 328.973 167.379C332.147 166.89 334.799 169.671 336.593 172.269C338.671 175.322 340.578 178.485 342.303 181.742C342.303 182.354 342.303 182.965 342.358 183.576C342.482 187.342 342.943 191.308 345.22 194.348C346.531 196.09 348.34 197.404 349.9 198.932C350.165 199.2 350.415 199.49 350.68 199.788C351.35 202.171 351.673 204.635 351.64 207.107C351.234 207.871 350.735 208.635 350.29 209.399C348.209 212.963 347.263 217.055 347.576 221.149C347.833 224.603 348.972 227.873 349.916 231.165Z" fill="#C8FFC2"/>
</g>
<path d="M339.417 248.96C339.417 249.274 339.417 249.579 339.347 249.892C339.113 252.444 338.567 258.419 335.205 258.999C332.826 259.412 329.371 255.324 327.475 254.033C326.414 253.315 325.322 252.597 324.285 251.825C322.584 250.657 321.112 249.197 319.94 247.516C318.948 245.927 318.265 244.17 317.928 242.336C317.312 239.418 317.21 236.308 316.657 233.375C316.409 232.068 316.073 230.779 315.65 229.516C313.983 224.892 311.563 220.563 308.482 216.697C306.992 214.733 305.362 212.877 303.802 211.005C303.241 210.371 302.671 209.706 302.125 209.026C300.214 206.658 298.607 204.022 298.904 201.103C299.286 197.283 303.085 194.426 306.961 194.227C310.838 194.029 314.551 196.137 317.101 199.018C317.813 199.843 318.457 200.722 319.028 201.646C320.417 204.003 321.529 206.507 322.343 209.11C322.967 210.951 323.521 212.808 324.145 214.649C324.718 216.424 325.411 218.159 326.219 219.844C327.067 221.553 328.039 223.2 329.129 224.772C331.328 228.042 333.809 231.144 335.806 234.513C336.562 235.776 337.219 237.094 337.771 238.455C339.089 241.799 339.651 245.383 339.417 248.96Z" fill="#80D4A9"/>
<g style="mix-blend-mode:screen" opacity="0.19">
<path d="M339.417 249.142C339.417 249.456 339.417 249.761 339.347 250.074C339.113 252.626 338.567 258.601 335.205 259.181C332.826 259.594 329.37 255.506 327.475 254.215C326.414 253.497 325.322 252.779 324.285 252.007C324.683 250.067 325.065 248.012 324.121 246.293C322.967 244.146 320.354 243.42 317.928 242.518C317.312 239.6 317.21 236.491 316.656 233.557C316.408 232.25 316.072 230.961 315.65 229.699C316.362 228.416 316.95 227.07 317.405 225.68C318.255 222.861 317.889 219.354 315.44 217.658C313.653 216.413 311.251 216.466 309.083 216.787L308.482 216.879C306.992 214.915 305.362 213.059 303.802 211.187C303.24 210.553 302.671 209.888 302.125 209.208C305.109 206.91 308.43 205.066 311.976 203.738C314.155 202.92 316.41 202.308 318.708 201.912L319.004 201.858C320.393 204.216 321.505 206.72 322.319 209.323C322.943 211.164 323.497 213.02 324.121 214.862C323.839 215.484 323.594 216.122 323.388 216.772C322.608 219.209 322.826 222.25 324.893 223.793C326.142 224.598 327.61 225.014 329.105 224.985C331.305 228.255 333.785 231.356 335.782 234.726C335.158 236.101 334.401 237.423 333.84 238.821C333.005 240.922 332.654 243.405 333.84 245.345C335.025 247.286 337.404 248.042 339.417 249.142Z" fill="#C8FFC2"/>
</g>
<path d="M84.6846 153.216V154.95H83.1246V153.216C81.7325 153.166 80.3821 152.737 79.2246 151.978L80.0982 150.091C81.0026 150.712 82.0564 151.091 83.1558 151.191V148.632C81.4086 148.212 79.4508 147.646 79.4508 145.431C79.4508 143.796 80.6676 142.375 83.1558 142.107V140.388H84.7158V142.077C85.8446 142.141 86.9424 142.463 87.9216 143.017L87.1416 144.919C86.4 144.499 85.5809 144.226 84.7314 144.117V146.745C86.4786 147.15 88.4052 147.723 88.4052 149.9C88.3584 151.497 87.1572 152.887 84.6846 153.216ZM83.1246 146.386V144.185C82.29 144.369 81.9624 144.82 81.9624 145.331C81.9624 145.843 82.407 146.126 83.1012 146.34L83.1246 146.386ZM85.839 150.106C85.839 149.572 85.3866 149.274 84.708 149.045V151.176C85.4724 150.97 85.8 150.565 85.8 150.068L85.839 150.106Z" fill="white"/>
<path d="M77.7815 142.764V143.62H77.0015V142.787C76.3116 142.768 75.6411 142.559 75.0671 142.184L75.4961 141.259C75.9435 141.56 76.4616 141.744 77.0015 141.794V140.526C76.1357 140.319 75.1763 140.037 75.1763 138.952C75.1763 138.15 75.7769 137.424 77.0015 137.317V136.477H77.7815V137.302C78.3318 137.334 78.8664 137.494 79.3415 137.768L78.9515 138.7C78.586 138.495 78.1833 138.363 77.7659 138.31V139.601C78.6317 139.8 79.5755 140.075 79.5755 141.129C79.5599 141.939 78.9983 142.627 77.7815 142.764ZM77.0015 139.41V138.333C76.5881 138.425 76.4243 138.639 76.4243 138.891C76.4243 139.143 76.6661 139.303 77.0093 139.41H77.0015ZM78.3353 141.236C78.3353 140.977 78.1091 140.831 77.7737 140.717V141.756C78.1715 141.679 78.3431 141.481 78.3431 141.236H78.3353Z" fill="white"/>
<path d="M169.712 106.108C169.712 109.538 164.97 116.636 162.583 119.99C162.434 120.201 162.235 120.373 162.002 120.493C161.77 120.612 161.512 120.674 161.249 120.674C160.987 120.674 160.729 120.612 160.497 120.493C160.264 120.373 160.065 120.201 159.916 119.99C157.537 116.636 152.786 109.538 152.786 106.108C152.786 103.909 153.678 101.801 155.265 100.246C156.852 98.6917 159.005 97.8184 161.249 97.8184C163.494 97.8184 165.647 98.6917 167.234 100.246C168.821 101.801 169.712 103.909 169.712 106.108Z" fill="#BCEBF1"/>
<path d="M164.767 106.108C164.767 106.789 164.561 107.455 164.174 108.022C163.788 108.589 163.238 109.03 162.595 109.291C161.953 109.552 161.245 109.62 160.563 109.487C159.881 109.354 159.254 109.026 158.762 108.544C158.27 108.062 157.935 107.448 157.799 106.78C157.663 106.112 157.733 105.419 157.999 104.789C158.265 104.16 158.716 103.621 159.295 103.243C159.873 102.864 160.553 102.662 161.249 102.662C161.711 102.662 162.169 102.751 162.595 102.924C163.022 103.098 163.41 103.351 163.737 103.671C164.063 103.991 164.322 104.371 164.499 104.789C164.676 105.207 164.767 105.655 164.767 106.108Z" fill="white"/>
<path d="M231.176 60.1301L232.978 63.7133L237.011 64.2863L234.093 67.0672L234.78 71.0018L231.176 69.1453L227.573 71.0018L228.259 67.0672L225.342 64.2863L229.374 63.7133L231.176 60.1301Z" fill="#F5AD49"/>
<path d="M244.889 60.1301L246.691 63.7133L250.723 64.2863L247.806 67.0672L248.492 71.0018L244.889 69.1453L241.277 71.0018L241.972 67.0672L239.054 64.2863L243.087 63.7133L244.889 60.1301Z" fill="#F5AD49"/>
<path d="M258.601 60.1301L260.403 63.7133L264.436 64.2863L261.518 67.0672L262.205 71.0018L258.601 69.1453L254.99 71.0018L255.684 67.0672L252.767 64.2863L256.799 63.7133L258.601 60.1301Z" fill="#F5AD49"/>
<path d="M272.314 60.1301L274.115 63.7133L278.148 64.2863L275.231 67.0672L275.917 71.0018L272.314 69.1453L268.702 71.0018L269.396 67.0672L266.471 64.2863L270.504 63.7133L272.314 60.1301Z" fill="#F5AD49"/>
<path d="M286.018 60.1301L287.82 63.7133L291.852 64.2863L288.935 67.0672L289.629 71.0018L286.018 69.1453L282.414 71.0018L283.101 67.0672L280.184 64.2863L284.216 63.7133L286.018 60.1301Z" fill="#F5AD49"/>
<path d="M35.724 99.7358H11.9574C11.7023 99.7358 11.4574 99.8346 11.2763 100.011C11.0951 100.187 10.9923 100.426 10.9902 100.676V115.405C10.9923 115.655 11.0951 115.894 11.2763 116.07C11.4574 116.246 11.7023 116.345 11.9574 116.345H27.9474L35.5446 119.317C35.6714 119.366 35.8083 119.383 35.9436 119.368C36.0788 119.353 36.2082 119.306 36.3205 119.23C36.4328 119.155 36.5245 119.054 36.5878 118.936C36.6511 118.818 36.6839 118.686 36.6834 118.553V100.676C36.6834 100.426 36.5824 100.187 36.4024 100.011C36.2225 99.8348 35.9785 99.7358 35.724 99.7358Z" fill="#F5AD49"/>
<path d="M17.8931 107.987C17.8931 108.205 17.8273 108.417 17.7038 108.598C17.5804 108.779 17.405 108.92 17.1998 109.004C16.9945 109.087 16.7687 109.109 16.5508 109.066C16.3329 109.024 16.1328 108.919 15.9757 108.765C15.8186 108.611 15.7117 108.415 15.6683 108.202C15.625 107.988 15.6472 107.767 15.7322 107.566C15.8172 107.365 15.9612 107.193 16.1459 107.072C16.3306 106.951 16.5478 106.887 16.7699 106.887C17.0678 106.887 17.3535 107.003 17.5642 107.209C17.7748 107.416 17.8931 107.695 17.8931 107.987Z" fill="white"/>
<path d="M24.96 107.987C24.96 108.205 24.8941 108.417 24.7707 108.598C24.6473 108.779 24.4719 108.92 24.2667 109.004C24.0614 109.087 23.8356 109.109 23.6177 109.066C23.3998 109.024 23.1997 108.919 23.0426 108.765C22.8855 108.611 22.7785 108.415 22.7352 108.202C22.6919 107.988 22.7141 107.767 22.7991 107.566C22.8841 107.365 23.0281 107.193 23.2128 107.072C23.3975 106.952 23.6147 106.887 23.8368 106.887C23.9846 106.886 24.1311 106.914 24.2679 106.969C24.4046 107.024 24.5289 107.105 24.6334 107.207C24.7379 107.309 24.8206 107.431 24.8766 107.565C24.9327 107.699 24.9611 107.842 24.96 107.987Z" fill="white"/>
<path d="M32.0267 107.987C32.0267 108.205 31.9606 108.418 31.8368 108.599C31.7131 108.78 31.5372 108.921 31.3315 109.004C31.1258 109.087 30.8996 109.109 30.6815 109.066C30.4634 109.022 30.2633 108.917 30.1065 108.762C29.9497 108.608 29.8434 108.411 29.8009 108.197C29.7585 107.983 29.7818 107.762 29.868 107.561C29.9542 107.36 30.0994 107.189 30.2851 107.069C30.4709 106.949 30.6888 106.885 30.9113 106.887C31.0584 106.887 31.2041 106.915 31.3399 106.971C31.4758 107.026 31.5991 107.107 31.7028 107.21C31.8064 107.312 31.8884 107.433 31.944 107.567C31.9996 107.7 32.0277 107.843 32.0267 107.987Z" fill="white"/>
<path d="M112.234 82.4619H94.185C93.9305 82.4619 93.6865 82.5609 93.5066 82.7372C93.3267 82.9134 93.2256 83.1524 93.2256 83.4016V98.1316C93.2256 98.3808 93.3267 98.6198 93.5066 98.796C93.6865 98.9723 93.9305 99.0713 94.185 99.0713H104.458L112.055 102.043C112.182 102.092 112.318 102.109 112.454 102.094C112.589 102.079 112.718 102.032 112.831 101.956C112.943 101.881 113.035 101.78 113.098 101.662C113.161 101.544 113.194 101.413 113.194 101.279V83.4016C113.194 83.1524 113.093 82.9134 112.913 82.7372C112.733 82.5609 112.489 82.4619 112.234 82.4619Z" fill="#FF897D"/>
<path d="M99.0599 89.04C99.096 88.7117 99.2283 88.4006 99.4409 88.1443C99.6535 87.888 99.9373 87.6974 100.258 87.5955C100.579 87.4936 100.923 87.4848 101.248 87.5701C101.574 87.6554 101.868 87.8312 102.094 88.0763C102.32 88.3214 102.468 88.6252 102.522 88.9513C102.576 89.2773 102.532 89.6116 102.396 89.9137C102.26 90.2159 102.037 90.4731 101.755 90.6542C101.474 90.8354 101.144 90.9328 100.807 90.9347C100.561 90.9361 100.317 90.8866 100.092 90.7893C99.867 90.6921 99.6654 90.5494 99.5004 90.3705C99.3355 90.1916 99.2109 89.9806 99.135 89.7513C99.0591 89.5221 99.0335 89.2796 99.0599 89.04ZM101.532 89.04C101.532 88.276 101.244 87.9475 100.807 87.9475C100.37 87.9475 100.074 88.3142 100.074 89.04C100.074 89.7658 100.37 90.1325 100.807 90.1325C101.244 90.1325 101.556 89.804 101.556 89.04H101.532ZM104.988 87.2217H106.181L101.384 94.0977H100.191L104.988 87.2217ZM103.833 92.2794C103.87 91.9504 104.002 91.6387 104.216 91.3821C104.429 91.1256 104.714 90.935 105.035 90.8337C105.357 90.7323 105.702 90.7244 106.028 90.8109C106.354 90.8975 106.647 91.0748 106.872 91.3213C107.098 91.5678 107.245 91.8731 107.297 92.2C107.349 92.527 107.303 92.8617 107.165 93.1635C107.026 93.4654 106.802 93.7215 106.518 93.9009C106.234 94.0802 105.903 94.1751 105.565 94.1741C105.322 94.1701 105.083 94.1167 104.862 94.0171C104.642 93.9175 104.445 93.774 104.284 93.5957C104.124 93.4175 104.003 93.2083 103.929 92.9817C103.855 92.755 103.831 92.5158 103.857 92.2794H103.833ZM106.298 92.2794C106.298 91.5536 106.01 91.1945 105.565 91.1945C105.12 91.1945 104.832 91.5459 104.832 92.2794C104.832 93.0128 105.136 93.3719 105.565 93.3719C105.994 93.3719 106.322 93.0052 106.322 92.2794H106.298Z" fill="white"/>
<path d="M44.46 177.603C44.0907 178.691 43.7937 179.801 43.5708 180.926" stroke="white" stroke-miterlimit="10"/>
<path d="M43.0715 187.794C43.412 194.576 45.7709 201.112 49.8575 206.596C55.9805 214.848 65.3561 220.44 75.3323 223.351C85.3085 226.262 95.9009 226.659 106.291 225.956C120.908 224.963 135.275 221.861 149.768 219.844C164.26 217.827 179.182 216.788 193.448 220.028C205.421 222.725 216.98 228.722 224.773 237.89" stroke="white" stroke-miterlimit="10" stroke-dasharray="9.03 9.03"/>
<path d="M226.925 240.594C227.596 241.527 228.236 242.489 228.828 243.482" stroke="white" stroke-miterlimit="10"/>
<g style="mix-blend-mode:multiply" opacity="0.5">
<path d="M65.8632 167.686L43.875 174.814L38.5632 169.588L65.8632 167.686Z" fill="#6B989E"/>
</g>
<path d="M45.739 177.099L43.6252 179.429L47.2132 178.283L45.739 177.099Z" fill="#577BB5"/>
<g style="mix-blend-mode:multiply" opacity="0.5">
<path d="M45.739 177.098L51.6904 185.258C51.6904 185.258 65.902 167.587 65.863 167.686C65.824 167.785 45.739 177.098 45.739 177.098Z" fill="#6B989E"/>
</g>
<path d="M43.6252 179.429L43.8748 174.814L65.863 167.686L45.739 177.099L43.6252 179.429Z" fill="#4E6FA3"/>
<path d="M27.69 157.288C27.69 158.035 27.4641 158.764 27.0407 159.385C26.6173 160.006 26.0155 160.489 25.3114 160.775C24.6073 161.061 23.8326 161.135 23.0851 160.99C22.3377 160.844 21.6511 160.485 21.1122 159.957C20.5733 159.429 20.2064 158.756 20.0577 158.024C19.909 157.292 19.9853 156.533 20.277 155.844C20.5686 155.154 21.0625 154.565 21.6961 154.15C22.3298 153.735 23.0748 153.514 23.8368 153.514C24.8588 153.514 25.8389 153.912 26.5615 154.619C27.2841 155.327 27.69 156.287 27.69 157.288Z" fill="#D6EDF1"/>
<path d="M18.876 171.881C20.3708 171.881 21.5826 170.694 21.5826 169.229C21.5826 167.765 20.3708 166.578 18.876 166.578C17.3812 166.578 16.1694 167.765 16.1694 169.229C16.1694 170.694 17.3812 171.881 18.876 171.881Z" fill="#D6EDF1"/>
<path d="M76.7051 165.577C76.7051 166.182 76.5221 166.773 76.1793 167.275C75.8364 167.778 75.3492 168.17 74.7791 168.401C74.209 168.632 73.5816 168.693 72.9764 168.575C72.3712 168.457 71.8153 168.166 71.3789 167.738C70.9426 167.311 70.6454 166.766 70.525 166.174C70.4047 165.581 70.4664 164.966 70.7026 164.408C70.9387 163.85 71.3386 163.372 71.8517 163.037C72.3648 162.701 72.968 162.521 73.5851 162.521C74.4126 162.521 75.2061 162.843 75.7913 163.417C76.3764 163.99 76.7051 164.767 76.7051 165.577Z" fill="white"/>
<path d="M84.1618 178.863C84.1634 179.338 84.0208 179.803 83.7523 180.199C83.4838 180.595 83.1013 180.903 82.6535 181.086C82.2056 181.268 81.7125 181.316 81.2367 181.224C80.7609 181.132 80.3238 180.903 79.9808 180.567C79.6378 180.231 79.4044 179.803 79.3101 179.337C79.2159 178.871 79.265 178.388 79.4514 177.949C79.6377 177.511 79.9528 177.136 80.3568 176.873C80.7608 176.61 81.2353 176.47 81.7204 176.472C82.3679 176.472 82.9889 176.724 83.4467 177.172C83.9046 177.621 84.1618 178.229 84.1618 178.863Z" fill="white"/>
<path d="M205.078 186.901C205.078 187.109 205.014 187.314 204.896 187.487C204.777 187.661 204.608 187.796 204.411 187.875C204.214 187.955 203.997 187.975 203.788 187.934C203.579 187.893 203.388 187.792 203.237 187.643C203.087 187.495 202.985 187.307 202.945 187.101C202.904 186.896 202.926 186.684 203.009 186.492C203.092 186.299 203.231 186.135 203.409 186.02C203.587 185.905 203.796 185.845 204.009 185.846C204.15 185.846 204.29 185.874 204.42 185.927C204.55 185.98 204.668 186.057 204.767 186.155C204.867 186.253 204.945 186.37 204.999 186.498C205.052 186.626 205.079 186.762 205.078 186.901Z" fill="white"/>
<path d="M45.0292 215.719C45.0292 216.062 44.9252 216.398 44.7303 216.683C44.5354 216.968 44.2584 217.191 43.9344 217.322C43.6104 217.453 43.254 217.487 42.9103 217.419C42.5667 217.351 42.2512 217.186 42.0039 216.942C41.7566 216.699 41.5885 216.389 41.5211 216.052C41.4537 215.715 41.4899 215.366 41.6251 215.05C41.7603 214.733 41.9884 214.463 42.2806 214.273C42.5728 214.083 42.9159 213.983 43.2664 213.984C43.4986 213.984 43.7285 214.029 43.9428 214.117C44.1572 214.204 44.3519 214.332 44.5157 214.493C44.6795 214.654 44.8092 214.845 44.8973 215.056C44.9854 215.266 45.0303 215.491 45.0292 215.719Z" fill="white"/>
<path d="M170.781 255.798C171.677 255.798 172.403 255.087 172.403 254.209C172.403 253.331 171.677 252.62 170.781 252.62C169.885 252.62 169.158 253.331 169.158 254.209C169.158 255.087 169.885 255.798 170.781 255.798Z" fill="white"/>
<path d="M354.838 123.993C354.838 124.303 354.744 124.606 354.568 124.863C354.392 125.121 354.143 125.321 353.851 125.44C353.558 125.558 353.237 125.589 352.927 125.529C352.617 125.469 352.332 125.319 352.108 125.1C351.884 124.881 351.732 124.602 351.67 124.299C351.609 123.995 351.64 123.68 351.761 123.394C351.882 123.107 352.087 122.863 352.35 122.691C352.613 122.519 352.922 122.427 353.239 122.427C353.663 122.427 354.069 122.592 354.369 122.885C354.669 123.179 354.838 123.578 354.838 123.993Z" fill="#D6EDF1"/>
<path d="M358.176 171.682C359.149 171.682 359.939 170.909 359.939 169.955C359.939 169.002 359.149 168.229 358.176 168.229C357.202 168.229 356.413 169.002 356.413 169.955C356.413 170.909 357.202 171.682 358.176 171.682Z" fill="white"/>
<path d="M368.332 142.711C368.33 143.093 368.213 143.466 367.995 143.783C367.777 144.099 367.469 144.346 367.108 144.491C366.747 144.636 366.351 144.673 365.968 144.598C365.586 144.523 365.235 144.338 364.96 144.067C364.685 143.797 364.498 143.452 364.422 143.077C364.347 142.703 364.386 142.314 364.536 141.962C364.685 141.609 364.938 141.308 365.263 141.095C365.587 140.883 365.968 140.77 366.358 140.77C366.618 140.77 366.875 140.821 367.115 140.918C367.355 141.016 367.573 141.159 367.756 141.339C367.94 141.519 368.085 141.733 368.184 141.969C368.282 142.204 368.333 142.456 368.332 142.711Z" fill="#D6EDF1"/>
<path d="M211.591 87.8098C212.53 87.8098 213.291 87.0641 213.291 86.1443C213.291 85.2244 212.53 84.4788 211.591 84.4788C210.651 84.4788 209.89 85.2244 209.89 86.1443C209.89 87.0641 210.651 87.8098 211.591 87.8098Z" fill="#D6EDF1"/>
<path d="M85.5424 89.04C85.544 89.2775 85.4735 89.5102 85.3399 89.7084C85.2062 89.9067 85.0155 90.0616 84.7919 90.1536C84.5683 90.2456 84.3218 90.2704 84.0837 90.225C83.8457 90.1796 83.6268 90.0659 83.4547 89.8985C83.2827 89.731 83.1653 89.5173 83.1174 89.2845C83.0695 89.0516 83.0933 88.81 83.1857 88.5904C83.2782 88.3708 83.4351 88.183 83.6367 88.0508C83.8382 87.9187 84.0753 87.8481 84.3178 87.8481C84.6413 87.8481 84.9516 87.9735 85.181 88.1968C85.4104 88.4201 85.5404 88.7232 85.5424 89.04Z" fill="#D6EDF1"/>
<path style="mix-blend-mode:multiply" opacity="0.5" d="M242.736 319.455C264.719 319.455 282.539 317.98 282.539 316.162C282.539 314.343 264.719 312.869 242.736 312.869C220.753 312.869 202.933 314.343 202.933 316.162C202.933 317.98 220.753 319.455 242.736 319.455Z" fill="url(#paint1_radial_422_3815)"/>
<path d="M235.045 252.444C235.585 259.631 235.687 266.843 235.349 274.042C234.281 296.091 229.25 308.682 229.25 308.682L221.684 308.514L216.941 241.389L216.403 233.833L221.083 233.405C227.175 232.886 233.243 232.091 239.288 231.197C238.261 238.348 236.845 245.441 235.045 252.444Z" fill="#C7683C"/>
<g style="mix-blend-mode:multiply" opacity="0.5">
<path d="M235.045 252.444C235.585 259.631 235.687 266.843 235.349 274.042L233.664 256.31C233.274 252.23 231.344 248.439 228.251 245.68C225.158 242.92 221.125 241.39 216.941 241.389L216.403 233.833L221.083 233.405C227.175 232.886 233.243 232.091 239.288 231.197C238.261 238.348 236.845 245.441 235.045 252.444Z" fill="#C7683C"/>
</g>
<path d="M230.186 308.346C230.186 308.346 231.652 312.724 230.724 315.153H211.279C211.279 315.153 209.999 311.647 215.53 312.029L221.099 308.682L220.412 297.536C220.412 297.536 223.532 295.427 225.872 298.391L232.658 298.964L230.186 308.346Z" fill="#E6E6E6"/>
<path d="M225.888 298.376C225.888 298.376 224.515 307.544 224.102 308.667C223.688 309.79 221.637 312.831 219.422 312.854C218.086 312.872 216.763 312.584 215.561 312.013L221.13 308.667L220.444 297.52C220.444 297.52 223.54 295.427 225.888 298.376Z" fill="#A9C0C4"/>
<path d="M250.988 229.226C247.931 229.83 244.834 230.357 241.698 230.831C238.048 231.388 234.39 231.916 230.724 232.359C238.875 255.531 249.81 283.638 259.529 302.647C262.587 303.602 264.35 300.767 266.908 300.248C266.409 282.531 259.326 264.34 252.665 248.181C252.322 242.673 251.838 236.11 250.988 229.226Z" fill="#D4774C"/>
<path d="M268.32 299.72C268.32 299.72 271.541 303.074 271.76 305.657L254.155 313.732C254.155 313.732 251.48 311.089 256.651 309.148L260.247 303.8L254.787 293.983C254.787 293.983 256.714 290.774 260.122 292.455L266.518 290.163L268.32 299.72Z" fill="#E6E6E6"/>
<path d="M260.13 292.485C260.13 292.485 262.844 301.332 262.969 302.547C263.094 303.762 262.532 307.345 260.512 308.292C259.309 308.864 257.988 309.154 256.651 309.141L260.247 303.793L254.787 293.975C254.787 293.975 256.721 290.774 260.13 292.485Z" fill="#A9C0C4"/>
<path d="M259.943 207.796C257.985 208.4 256.121 209.217 254.139 209.706C250.419 199.209 246.495 187.901 241.659 178.382C240.552 176.205 239.475 174.165 238.415 172.224C236.909 169.451 235.435 166.876 233.938 164.294C237.112 163.041 240.224 161.62 243.336 160.206L246.456 158.808C247.634 161.352 248.679 163.95 249.647 166.555C250.442 168.71 251.186 170.862 251.877 173.011C255.582 184.601 257.93 195.847 259.943 207.796Z" fill="#D4774C"/>
<path d="M256.448 204.671C257.515 205.138 258.486 205.794 259.311 206.604C260.785 208.018 260.965 210.852 261.823 212.09C262.681 213.327 263.484 214.344 263.195 214.687C262.907 215.031 262.415 214.542 260.855 212.724C260.855 212.724 259.904 212.029 260.333 213.083C260.762 214.137 262.439 216.315 261.893 216.857C261.347 217.4 259.319 213.893 259.061 213.839C258.804 213.786 260.809 218.316 259.974 218.951C259.139 219.585 258.289 214.145 257.634 214.076C256.979 214.007 258.086 217.858 257.54 218.049C256.347 218.484 255.98 212.174 255.427 212.304C254.873 212.434 254.483 214.771 253.765 214.634C253.048 214.496 253.984 212.105 253.937 211.624C253.89 211.142 252.954 205.581 256.448 204.671Z" fill="#D4774C"/>
<path d="M249.6 166.532L238.383 172.201C236.878 169.428 235.404 166.853 233.906 164.271C237.081 163.018 240.193 161.597 243.305 160.184L246.425 158.785C247.595 161.33 248.64 163.912 249.6 166.532Z" fill="#BF6237"/>
<path d="M248.75 161.841C248.75 161.841 239.655 167.953 235.552 168.228L224.141 147.868C224.099 146.973 224.128 146.077 224.226 145.186C224.359 143.978 224.821 142.828 225.565 141.855C226.308 140.883 227.305 140.125 228.451 139.66C229.598 139.196 230.85 139.042 232.078 139.216C233.305 139.39 234.462 139.885 235.427 140.648L235.552 140.755C236.747 141.899 237.794 143.182 238.672 144.575C241.831 149.159 245.692 156.104 247.548 159.656C248.305 160.978 248.75 161.841 248.75 161.841Z" fill="#FFB4AB"/>
<g style="mix-blend-mode:multiply" opacity="0.5">
<path d="M248.75 161.841C248.75 161.841 239.655 167.953 235.552 168.228L224.141 147.868C224.099 146.973 224.128 146.077 224.226 145.186C224.359 143.978 224.821 142.828 225.565 141.855C226.308 140.883 227.305 140.125 228.451 139.66C229.598 139.196 230.85 139.042 232.078 139.216C233.305 139.39 234.462 139.885 235.427 140.648L235.552 140.755C236.747 141.899 237.794 143.182 238.672 144.575C238.298 148.899 237.921 153.229 237.541 157.563C237.346 158.579 237.463 159.629 237.876 160.581C238.257 161.136 238.775 161.587 239.382 161.893C239.989 162.199 240.665 162.35 241.347 162.33C242.517 162.366 243.68 162.146 244.752 161.688C245.825 161.229 246.78 160.543 247.548 159.679C248.305 160.978 248.75 161.841 248.75 161.841Z" fill="#FF897D"/>
</g>
<path d="M228.883 137.264V124.505H220.225V137.936C218.088 138.696 216.26 140.114 215.015 141.978C214.313 143.024 213.665 143.91 213.088 144.728C213.902 145.115 214.741 145.449 215.6 145.729L216.466 145.637C219.006 145.437 221.494 144.814 223.821 143.796C225.635 143.026 227.255 141.879 228.571 140.434C228.589 140.31 228.617 140.187 228.657 140.068C228.974 139.136 229.395 138.242 229.913 137.401L228.883 137.264Z" fill="#D4774C"/>
<path d="M228.75 127.66C228.138 129.533 227.131 131.258 225.794 132.725C224.782 133.749 223.544 134.533 222.175 135.017C221.546 135.235 220.89 135.371 220.225 135.422V133.199C221.218 133.261 222.213 133.123 223.15 132.794C224.52 132.309 225.76 131.525 226.777 130.502C227.591 129.668 228.258 128.708 228.75 127.66Z" fill="#BF6237"/>
<path d="M255.38 232.496C254.779 232.641 253.71 232.886 252.26 233.199C244.67 234.834 227.097 238.287 217.643 238.761C216.512 238.815 215.49 238.83 214.625 238.761L213.743 176.457C213.743 176.457 212.885 171.338 211.988 166.066C211.122 161.009 210.218 155.814 210.007 154.843C209.562 152.872 209.165 151.612 212.682 144.789C216.2 137.967 220.233 137.837 220.233 137.837C217.183 138.448 213.868 143.803 213.868 143.803C213.868 143.803 220.927 141.893 223.548 139.219C224.275 138.446 225.178 137.851 226.183 137.483C227.189 137.115 228.269 136.985 229.335 137.103C230.454 137.296 231.519 137.719 232.46 138.343C233.401 138.967 234.197 139.779 234.795 140.725C236.238 142.973 236.751 145.675 236.231 148.281C235.637 151.873 235.278 155.499 235.154 159.137C234.858 165.348 234.951 170.956 234.951 170.956C245.497 181.117 243.477 197.085 243.477 197.085L255.38 232.496Z" fill="#FF897D"/>
<path d="M228.212 159.786C227.744 162.98 227.347 166.181 227.105 169.39C226.972 170.994 226.886 172.606 226.886 174.211C226.886 174.616 226.886 175.013 226.886 175.41C226.886 175.807 226.886 176.174 226.957 176.61L227.003 177.206C227.003 177.404 227.074 177.603 227.105 177.801C227.175 178.191 227.23 178.565 227.308 178.978C228.618 185.289 230.1 191.576 231.59 197.856L236.02 216.704L238.228 226.132L240.388 235.575C238.735 229.333 237.151 223.069 235.591 216.804C234.031 210.539 232.534 204.259 231.028 197.979L228.875 188.536C228.181 185.388 227.456 182.24 226.879 179.054C226.808 178.657 226.754 178.29 226.691 177.855C226.691 177.649 226.621 177.45 226.598 177.251L226.551 176.64C226.551 176.235 226.512 175.83 226.504 175.425C226.496 175.021 226.504 174.616 226.504 174.211C226.535 172.591 226.634 170.976 226.801 169.367C227.159 166.158 227.62 162.957 228.212 159.786Z" fill="#DE3730"/>
<g style="mix-blend-mode:screen" opacity="0.5">
<path d="M232.573 149.602L225.833 169.825C219.281 180.792 216.035 193.354 216.473 206.054L217.682 238.784C216.551 238.837 215.53 238.853 214.664 238.784L213.782 176.48C213.782 176.48 212.924 171.361 212.027 166.089L229.905 146.989L232.573 149.602Z" fill="#527E84"/>
</g>
<g style="mix-blend-mode:multiply" opacity="0.5">
<path d="M255.38 232.496C254.779 232.641 253.711 232.886 252.26 233.199L240.412 196.764C243.001 185.487 232.573 172.744 232.573 172.744L235.225 159.137C234.928 165.348 235.022 170.956 235.022 170.956C245.567 181.117 243.547 197.085 243.547 197.085L255.38 232.496Z" fill="#FFB4AB"/>
</g>
<path d="M180.063 157.8C178.592 158.04 177.19 158.579 175.944 159.381C173.464 155.191 171.199 150.882 169.158 146.47C171.249 145.584 173.386 144.804 175.453 143.88C177.559 148.632 179.743 152.452 180.063 157.8Z" fill="#008A2B"/>
<path d="M175.874 157.8C173.488 154.69 172.177 150.84 170.414 147.364C170.554 147.297 170.664 147.182 170.721 147.041C170.779 146.899 170.781 146.742 170.726 146.6C171.974 146.111 173.23 145.629 174.47 145.072C174.537 145.21 174.654 145.318 174.799 145.375C174.944 145.431 175.105 145.432 175.25 145.377C177.005 148.937 179.088 152.368 179.267 156.409C179.116 156.45 178.983 156.54 178.892 156.666C178.801 156.791 178.757 156.943 178.768 157.097C177.946 157.184 177.17 157.508 176.537 158.029C176.476 157.917 176.374 157.831 176.251 157.789C176.128 157.746 175.994 157.75 175.874 157.8Z" fill="#00C642"/>
<path d="M177.559 150.924C177.731 151.445 177.698 152.01 177.467 152.509C177.235 153.007 176.821 153.402 176.307 153.617C175.792 153.832 175.214 153.85 174.687 153.668C174.159 153.487 173.72 153.118 173.456 152.635C173.334 152.376 173.266 152.095 173.257 151.809C173.248 151.523 173.298 151.238 173.403 150.972C173.509 150.705 173.668 150.462 173.871 150.257C174.075 150.052 174.318 149.889 174.587 149.778C174.859 149.659 175.152 149.595 175.449 149.589C175.746 149.582 176.042 149.634 176.319 149.741C176.595 149.847 176.847 150.007 177.06 150.21C177.273 150.413 177.443 150.656 177.559 150.924Z" fill="#008A2B"/>
<path d="M176.685 151.054L177.06 150.924C177.114 151.038 177.161 151.153 177.208 151.268L176.826 151.42C176.94 151.726 176.962 152.058 176.888 152.375H176.389C176.455 152.125 176.455 151.862 176.389 151.611L175.804 151.864C175.804 152.33 175.913 152.696 175.375 152.933C175.175 153.006 174.954 153.001 174.757 152.92C174.56 152.84 174.402 152.688 174.314 152.498L173.909 152.651C173.862 152.536 173.807 152.429 173.76 152.314L174.158 152.162C174.076 151.915 174.044 151.656 174.065 151.398C174.236 151.398 174.408 151.398 174.587 151.398C174.571 151.6 174.587 151.803 174.634 152.001C174.837 151.917 175.047 151.841 175.235 151.741C175.235 151.291 175.063 150.886 175.601 150.634C175.803 150.566 176.024 150.571 176.223 150.648C176.421 150.725 176.586 150.869 176.685 151.054ZM175.297 152.062L174.79 152.269C174.825 152.328 174.88 152.374 174.945 152.398C175.011 152.422 175.083 152.422 175.149 152.398C175.297 152.337 175.289 152.192 175.297 152.062ZM175.874 151.115C175.734 151.176 175.742 151.321 175.742 151.459L176.225 151.245C176.132 151.138 176.022 151.054 175.874 151.115Z" fill="#80D4A9"/>
<path d="M179.891 158.426C178.407 158.265 176.905 158.413 175.484 158.862C174.314 154.133 173.199 149.48 172.505 144.636C174.759 144.331 177.029 144.147 179.283 143.803C179.993 148.968 181.046 153.216 179.891 158.426Z" fill="#008A2B"/>
<path d="M175.843 157.372C174.4 153.751 174.197 149.694 173.503 145.912C173.662 145.884 173.804 145.798 173.9 145.672C173.997 145.546 174.042 145.389 174.026 145.232C175.367 145.087 176.709 144.957 178.043 144.781C178.071 144.937 178.159 145.075 178.288 145.17C178.416 145.265 178.577 145.309 178.737 145.293C179.447 149.182 180.5 153.032 179.564 156.975C179.407 156.972 179.253 157.023 179.131 157.119C179.008 157.215 178.924 157.351 178.893 157.502C178.079 157.369 177.243 157.475 176.491 157.807C176.482 157.735 176.457 157.666 176.419 157.603C176.38 157.541 176.329 157.487 176.268 157.446C176.206 157.405 176.137 157.377 176.064 157.364C175.99 157.351 175.915 157.354 175.843 157.372Z" fill="#00C642"/>
<path d="M179.4 151.184C179.437 151.739 179.256 152.288 178.895 152.718C178.534 153.149 178.019 153.428 177.455 153.5C176.891 153.572 176.321 153.431 175.859 153.106C175.397 152.781 175.079 152.295 174.97 151.749C174.924 151.466 174.938 151.178 175.008 150.901C175.079 150.623 175.206 150.363 175.381 150.134C175.556 149.905 175.776 149.713 176.029 149.57C176.281 149.426 176.56 149.333 176.849 149.296C177.144 149.253 177.444 149.268 177.732 149.34C178.021 149.412 178.292 149.54 178.529 149.716C178.767 149.891 178.966 150.112 179.116 150.364C179.265 150.616 179.362 150.894 179.4 151.184Z" fill="#008A2B"/>
<path d="M178.48 151.069L178.916 151.023L178.963 151.382L178.55 151.436C178.572 151.758 178.504 152.08 178.355 152.368L177.871 152.23C177.998 151.995 178.06 151.732 178.051 151.466L177.419 151.558C177.317 152.009 177.294 152.391 176.717 152.482C176.503 152.496 176.291 152.431 176.123 152.3C175.956 152.168 175.845 151.98 175.812 151.772L175.375 151.818L175.328 151.451H175.75C175.745 151.191 175.79 150.931 175.882 150.687L176.381 150.825C176.312 151.016 176.272 151.217 176.264 151.42C176.483 151.42 176.701 151.375 176.912 151.336C177.013 150.893 176.982 150.458 177.567 150.366C177.78 150.355 177.99 150.42 178.158 150.55C178.326 150.679 178.44 150.864 178.48 151.069ZM176.865 151.673L176.319 151.741C176.381 151.879 176.475 151.986 176.639 151.963C176.803 151.94 176.826 151.803 176.865 151.688V151.673ZM177.684 150.909C177.528 150.909 177.497 151.077 177.458 151.199L177.988 151.13C177.926 151.008 177.84 150.924 177.684 150.924V150.909Z" fill="#80D4A9"/>
<path d="M179.54 159.015C178.158 158.463 176.672 158.203 175.18 158.251C175.352 153.392 175.562 148.617 176.218 143.735C178.48 144.04 180.718 144.499 182.98 144.72C182.239 149.938 182.083 154.316 179.54 159.015Z" fill="#008A2B"/>
<path d="M175.937 156.929C175.547 153.063 176.467 149.106 176.818 145.255C176.979 145.271 177.139 145.226 177.267 145.129C177.394 145.032 177.48 144.892 177.505 144.736C178.838 144.95 180.164 145.179 181.498 145.362C181.482 145.518 181.527 145.674 181.624 145.799C181.721 145.924 181.863 146.008 182.021 146.034C181.639 149.969 181.6 153.957 179.611 157.494C179.462 157.453 179.303 157.463 179.161 157.522C179.019 157.582 178.902 157.688 178.831 157.823C178.079 157.488 177.245 157.371 176.428 157.487C176.434 157.418 176.425 157.35 176.403 157.285C176.381 157.22 176.347 157.16 176.301 157.108C176.255 157.056 176.2 157.014 176.137 156.983C176.075 156.952 176.007 156.934 175.937 156.929Z" fill="#00C642"/>
<path d="M181.022 151.902C180.895 152.435 180.567 152.903 180.105 153.212C179.643 153.521 179.08 153.649 178.526 153.572C177.972 153.494 177.468 153.216 177.113 152.792C176.758 152.369 176.577 151.83 176.608 151.283C176.639 150.999 176.729 150.724 176.871 150.475C177.014 150.225 177.206 150.007 177.437 149.832C177.668 149.657 177.933 149.53 178.215 149.457C178.497 149.385 178.791 149.369 179.08 149.411C179.375 149.448 179.66 149.542 179.919 149.687C180.177 149.833 180.402 150.027 180.583 150.259C180.764 150.49 180.896 150.755 180.971 151.037C181.047 151.319 181.064 151.613 181.022 151.902Z" fill="#008A2B"/>
<path d="M180.18 151.558L180.609 151.627C180.609 151.749 180.57 151.871 180.554 151.993L180.141 151.932C180.076 152.25 179.922 152.544 179.696 152.78C179.556 152.689 179.416 152.597 179.267 152.513C179.448 152.332 179.577 152.108 179.642 151.864L179.01 151.78C178.792 152.192 178.667 152.544 178.082 152.482C177.871 152.442 177.685 152.324 177.559 152.154C177.433 151.984 177.377 151.774 177.403 151.566L176.974 151.497C176.974 151.375 176.974 151.252 177.029 151.13L177.45 151.199C177.51 150.939 177.624 150.695 177.785 150.481L178.23 150.74C178.111 150.909 178.019 151.095 177.957 151.291C178.168 151.291 178.386 151.359 178.597 151.375C178.815 150.97 178.909 150.549 179.501 150.611C179.712 150.663 179.896 150.787 180.02 150.961C180.145 151.135 180.201 151.347 180.18 151.558ZM178.456 151.718L177.91 151.642C177.91 151.787 177.996 151.917 178.152 151.932C178.308 151.948 178.409 151.833 178.487 151.688L178.456 151.718ZM179.455 151.207C179.299 151.207 179.228 151.313 179.158 151.428L179.681 151.497C179.689 151.359 179.642 151.222 179.486 151.207H179.455Z" fill="#80D4A9"/>
<path d="M225.03 164.531C223.852 166.135 222.612 167.701 221.333 169.237L221.036 169.588C219.796 171.063 217.651 173.37 215.771 175.364C214.687 176.514 213.26 177.301 211.693 177.612C210.127 177.923 208.5 177.744 207.043 177.099C205.062 176.228 202.925 175.265 201.505 174.585C197.699 172.717 193.994 170.656 190.406 168.412C186.771 166.196 183.167 163.889 179.447 161.696C178.386 161.108 176.865 160.168 176.865 160.168C176.548 160.099 176.265 159.927 176.061 159.68C175.857 159.433 175.745 159.126 175.742 158.808C174.892 158.77 174.915 157.876 174.915 157.876C174.762 157.837 174.62 157.764 174.5 157.663C174.38 157.563 174.285 157.437 174.222 157.295C174.159 157.153 174.13 156.999 174.136 156.844C174.143 156.689 174.185 156.538 174.26 156.402C174.26 156.402 175.726 156.975 175.773 156.807C175.82 156.639 172.006 154.293 172.918 153.972C173.831 153.651 177.902 156.02 179.447 156.15C179.855 156.202 180.269 156.102 180.605 155.868C180.94 155.634 181.173 155.284 181.256 154.889L181.592 153.651C181.955 153.932 182.248 154.29 182.45 154.698C182.525 155.565 182.469 156.437 182.286 157.288C190.484 160.42 199.118 163.736 207.48 166.227C208.541 164.699 209.539 163.171 210.514 161.643C211.825 159.633 213.08 157.655 214.352 155.645C215.459 156.677 216.59 157.678 217.745 158.701C220.116 160.703 222.544 162.646 225.03 164.531Z" fill="#D4774C"/>
<path d="M225.03 164.531C223.852 166.135 222.612 167.701 221.333 169.237C216.317 168.144 212.573 164.286 210.514 161.635C211.825 159.626 213.08 157.647 214.352 155.638C215.459 156.669 216.59 157.67 217.745 158.694C220.116 160.7 222.544 162.646 225.03 164.531Z" fill="#BF6237"/>
<path d="M211.949 157.8L223.314 141.534C223.314 141.534 232.315 137.516 234.515 147.493L224.133 166.593C224.133 166.593 216.06 165.142 211.949 157.8Z" fill="#FF897D"/>
<path d="M212.495 158.564C212.293 158.319 212.09 158.075 211.895 157.8V157.762C212.612 156.608 213.385 155.47 214.141 154.377C214.898 153.285 215.701 152.162 216.481 151.069C217.261 149.977 218.088 148.884 218.93 147.822C219.773 146.76 220.6 145.691 221.489 144.659C220.787 145.813 220.038 146.951 219.274 148.067C218.509 149.182 217.714 150.29 216.934 151.39C216.154 152.49 215.374 153.575 214.516 154.652C213.658 155.73 212.854 156.799 211.981 157.838V157.762C212.16 158.014 212.332 158.289 212.495 158.564Z" fill="#DE3730"/>
<path d="M223.486 166.578L224.523 167.044H224.429C225.131 165.463 225.888 163.904 226.629 162.338C227.37 160.772 228.189 159.236 228.969 157.693C229.749 156.15 230.529 154.637 231.395 153.109C232.261 151.581 233.056 150.053 233.938 148.571C233.251 150.168 232.518 151.734 231.769 153.292C231.02 154.851 230.256 156.409 229.484 157.953C228.712 159.496 227.924 161.009 227.089 162.537C226.255 164.065 225.443 165.593 224.57 167.121V167.182H224.515L223.486 166.578Z" fill="#DE3730"/>
<path d="M209.929 123.42C210.206 122.67 210.612 121.972 211.13 121.357C211.439 120.954 211.701 120.519 211.91 120.058C212.222 116.284 213.151 112.67 213.689 111.654C214.523 110.027 219.047 108.598 223.501 109.362C227.955 110.126 231.644 113.098 231.839 114.909C231.91 115.597 232.245 118.347 229.866 125.101C229.244 127.1 228.193 128.947 226.785 130.517C225.768 131.539 224.528 132.323 223.158 132.809C221.981 133.247 220.702 133.348 219.469 133.1L218.618 132.947C217.084 132.69 215.682 131.934 214.64 130.8C213.839 129.973 213.19 129.017 212.722 127.973C212.316 127.036 212.053 126.044 211.942 125.032C211.326 125.026 210.73 124.819 210.249 124.444C210.101 124.321 209.993 124.159 209.936 123.978C209.88 123.796 209.877 123.603 209.929 123.42Z" fill="#D4774C"/>
<path d="M226.637 123.168C226.736 122.896 226.787 122.609 226.785 122.32C226.807 122.061 226.775 121.801 226.691 121.556C226.638 121.451 226.56 121.359 226.465 121.288C226.369 121.217 226.259 121.169 226.141 121.147C226.023 121.124 225.902 121.129 225.786 121.16C225.671 121.191 225.564 121.248 225.475 121.326C225.009 121.616 224.634 122.026 224.39 122.511C224.191 123.046 224.072 123.607 224.039 124.176C223.891 123.592 223.891 122.981 224.039 122.396C224.259 121.803 224.673 121.298 225.217 120.96C225.514 120.775 225.869 120.705 226.216 120.761C226.399 120.792 226.569 120.873 226.707 120.994C226.845 121.116 226.945 121.274 226.996 121.449C227.074 121.755 227.074 122.075 226.996 122.381C226.933 122.664 226.81 122.932 226.637 123.168Z" fill="#BF6237"/>
<path d="M225.155 124.314C225.271 124.086 225.347 123.84 225.381 123.588C225.408 123.347 225.408 123.103 225.381 122.862C225.38 122.64 225.315 122.423 225.194 122.236C225.132 122.142 225.051 122.063 224.955 122.004C224.86 121.945 224.752 121.906 224.64 121.892C224.775 121.816 224.932 121.785 225.087 121.804C225.242 121.824 225.386 121.892 225.498 121.999C225.727 122.216 225.861 122.512 225.872 122.824C225.894 123.11 225.851 123.397 225.748 123.664C225.639 123.945 225.427 124.176 225.155 124.314Z" fill="#BF6237"/>
<path d="M215.545 126.43C215.415 126.636 215.225 126.798 214.999 126.896C214.777 127.002 214.527 127.042 214.281 127.011C214.492 126.881 214.703 126.812 214.905 126.705C215.108 126.598 215.28 126.514 215.545 126.43Z" fill="#BF6237"/>
<path d="M216.107 124.604C215.857 125.309 215.348 125.898 214.679 126.254C214.346 126.437 213.981 126.556 213.603 126.606C213.232 126.655 212.854 126.626 212.495 126.522C213.187 126.425 213.855 126.208 214.469 125.88C215.076 125.536 215.628 125.106 216.107 124.604Z" fill="#BF6237"/>
<path d="M213.775 124.512C213.768 124.58 213.747 124.645 213.714 124.704C213.68 124.764 213.635 124.815 213.58 124.856C213.517 124.885 213.45 124.9 213.381 124.9C213.312 124.9 213.244 124.885 213.182 124.856C213.168 124.783 213.176 124.707 213.205 124.638C213.234 124.569 213.283 124.509 213.346 124.467C213.414 124.432 213.491 124.418 213.567 124.426C213.643 124.434 213.716 124.464 213.775 124.512Z" fill="#BF6237"/>
<path d="M214.36 121.357C214.36 121.968 214.734 122.465 215.202 122.465C215.67 122.465 216.044 121.968 216.044 121.357C216.044 120.746 215.67 120.257 215.202 120.257C214.734 120.257 214.36 120.746 214.36 121.357Z" fill="#5E2B13"/>
<path d="M214.024 120.119C214.087 120.169 214.158 120.208 214.235 120.234C214.331 120.264 214.43 120.282 214.531 120.288C214.746 120.31 214.963 120.31 215.179 120.288C215.269 120.274 215.36 120.297 215.433 120.35C215.506 120.403 215.555 120.482 215.569 120.57C215.58 120.659 215.555 120.749 215.5 120.82C215.444 120.892 215.363 120.939 215.272 120.952C215.236 120.956 215.199 120.956 215.163 120.952C214.896 120.915 214.635 120.848 214.383 120.754C214.254 120.708 214.133 120.644 214.024 120.563C213.957 120.523 213.898 120.471 213.851 120.41C213.804 120.348 213.77 120.278 213.751 120.203C213.746 120.189 213.745 120.175 213.746 120.16C213.748 120.145 213.752 120.131 213.759 120.118C213.767 120.105 213.777 120.094 213.789 120.085C213.801 120.076 213.814 120.069 213.829 120.066C213.859 120.055 213.893 120.055 213.923 120.066L214.024 120.119Z" fill="#5E2B13"/>
<path d="M214.016 118.141C214.331 118.121 214.646 118.121 214.96 118.141C215.282 118.15 215.602 118.178 215.92 118.225C216.243 118.271 216.561 118.345 216.871 118.446C217.19 118.553 217.503 118.678 217.807 118.821C217.861 118.844 217.922 118.846 217.978 118.826C218.033 118.806 218.078 118.766 218.104 118.714C218.123 118.673 218.128 118.626 218.119 118.582C218.109 118.538 218.084 118.498 218.049 118.469C217.776 118.217 217.472 117.998 217.144 117.82C216.813 117.643 216.463 117.505 216.099 117.407C215.731 117.302 215.351 117.245 214.968 117.239C214.579 117.223 214.189 117.267 213.814 117.369C213.76 117.384 213.711 117.409 213.667 117.443C213.624 117.477 213.588 117.519 213.561 117.566C213.534 117.614 213.517 117.666 213.511 117.72C213.505 117.774 213.51 117.829 213.525 117.881C213.554 117.97 213.613 118.047 213.692 118.1C213.772 118.152 213.866 118.177 213.962 118.171L214.016 118.141Z" fill="#5E2B13"/>
<path d="M213.275 117.43C213.255 117.513 213.258 117.6 213.282 117.682C213.307 117.763 213.353 117.837 213.416 117.896C213.536 118.015 213.687 118.099 213.852 118.141C213.909 118.158 213.971 118.152 214.023 118.125C214.076 118.097 214.115 118.051 214.133 117.996C214.148 117.94 214.141 117.881 214.114 117.83C214.087 117.779 214.04 117.74 213.985 117.721H213.899C213.794 117.732 213.687 117.719 213.587 117.682C213.538 117.666 213.495 117.637 213.462 117.597C213.429 117.558 213.407 117.511 213.4 117.461C213.396 117.443 213.387 117.428 213.372 117.416C213.358 117.405 213.34 117.399 213.322 117.4C213.303 117.404 213.286 117.415 213.275 117.43Z" fill="#5E2B13"/>
<path d="M220.272 131.579C222.404 131.579 224.133 129.886 224.133 127.798C224.133 125.709 222.404 124.016 220.272 124.016C218.14 124.016 216.411 125.709 216.411 127.798C216.411 129.886 218.14 131.579 220.272 131.579Z" fill="#D46C46"/>
<path d="M218.61 132.932C217.077 132.671 215.677 131.915 214.632 130.785C214.051 130.189 213.553 129.522 213.15 128.798C214.14 132.371 215.595 135.804 217.479 139.013C218.282 138.412 219.226 138.02 220.225 137.875V133.199C219.962 133.183 219.701 133.145 219.445 133.084L218.61 132.932Z" fill="#1A223B"/>
<path d="M241.02 138.112C238.797 135.629 236.137 133.359 234.905 130.281C233.072 125.697 234.796 120.417 233.345 115.765C232.792 114.044 231.835 112.473 230.551 111.18C229.267 109.886 227.691 108.905 225.95 108.316C223.68 107.605 221.259 107.492 218.93 107.987C216.688 108.319 214.647 109.441 213.19 111.142C211.754 113.045 211.536 115.558 211.567 117.919C211.567 118.782 211.614 119.646 211.676 120.509C211.759 120.375 211.829 120.235 211.887 120.089C212.011 118.625 212.217 117.168 212.503 115.726C215.19 116.442 218.056 116.102 220.49 114.779C219.903 116.067 219.803 117.519 220.209 118.872C220.615 120.226 221.5 121.394 222.706 122.167C223.361 121.533 223.938 120.677 224.796 120.341C225.219 120.155 225.688 120.093 226.146 120.162C226.604 120.231 227.032 120.429 227.378 120.731C227.659 121.077 227.831 121.496 227.874 121.937C227.917 122.378 227.828 122.821 227.62 123.214C227.185 123.996 226.564 124.664 225.81 125.162C225.926 126.356 226.404 127.49 227.183 128.416C227.653 128.968 228.224 129.43 228.868 129.776V137.126C229.032 137.128 229.197 137.144 229.359 137.172C231.214 137.474 232.898 138.414 234.109 139.823C234.575 140.051 235.012 140.33 235.412 140.656L235.537 140.763C237.284 142.199 239.998 146.347 242.51 150.603C243.504 149.643 244.194 148.423 244.499 147.089C245.201 143.811 243.259 140.602 241.02 138.112Z" fill="#1A223B"/>
<path style="mix-blend-mode:multiply" opacity="0.5" d="M172.115 315.337C172.115 317.155 154.292 318.63 132.335 318.63C110.378 318.63 92.5547 317.155 92.5547 315.337C92.5547 313.518 110.37 312.044 132.335 312.044C154.299 312.044 172.115 313.518 172.115 315.337Z" fill="url(#paint2_radial_422_3815)"/>
<path d="M158.145 307.559H144.846L119.465 234.742L120.635 188.834L136.711 183.883L142.069 214.794L158.145 307.559Z" fill="#1C2540"/>
<g style="mix-blend-mode:multiply" opacity="0.5">
<path d="M148.309 307.544H144.846L119.457 234.727L120.635 188.818L136.711 183.868L142.069 214.779C133.809 234.794 132.772 256.97 139.129 277.641L148.309 307.544Z" fill="#1C2540"/>
</g>
<path d="M145.797 308.514C145.27 309.499 144.994 310.595 144.994 311.708C144.994 312.82 145.27 313.916 145.797 314.901H167.169C167.169 314.901 167.864 313.717 167.169 313.113C166.475 312.51 159.369 312.311 156.249 307.559H145.649L145.797 308.514Z" fill="#E6E6E6"/>
<path d="M167.474 314.496H145.447V315.337H167.474V314.496Z" fill="#A9C0C4"/>
<path d="M107.64 185.174C107.64 185.174 105.393 193.822 107.031 200.454L107.57 252.666L103.506 307.544H116.04L132.974 201.348L136.71 183.906L107.64 185.174Z" fill="#28365D"/>
<path d="M104.676 308.514C104.148 309.499 103.873 310.595 103.873 311.708C103.873 312.82 104.148 313.916 104.676 314.901H126.048C126.048 314.901 126.742 313.717 126.048 313.113C125.354 312.51 118.248 312.311 115.128 307.559H104.52L104.676 308.514Z" fill="#E6E6E6"/>
<path d="M126.352 314.496H104.325V315.337H126.352V314.496Z" fill="#A9C0C4"/>
<path d="M122.304 142.207C124.543 144.056 127.577 146.646 130.588 147.081C131.237 147.201 131.906 147.165 132.537 146.976C133.169 146.787 133.744 146.451 134.215 145.996C134.293 145.79 134.378 145.591 134.456 145.393C134.035 144.774 133.598 144.124 133.138 143.391C131.898 141.443 130.876 139.915 129.238 139.036V125.368H120.955V138.051C120.175 138.096 119.34 138.173 118.474 138.28C119.609 139.715 120.892 141.031 122.304 142.207Z" fill="#EBAF7F"/>
<path d="M129.215 134.055V136.347C128.902 136.281 128.595 136.194 128.294 136.087C126.924 135.601 125.684 134.818 124.667 133.795C124.089 133.21 123.588 132.555 123.177 131.847C124.086 132.648 125.146 133.265 126.297 133.665C127.231 133.996 128.225 134.128 129.215 134.055Z" fill="#E48855"/>
<path d="M137.802 176.419C137.42 181.644 137.1 185.587 137.1 185.587C137.1 185.587 134.144 186.183 129.69 186.618L129.098 186.671C123.099 187.214 114.644 187.435 107 185.587L110.955 169.359L112.257 157.739L114.379 138.822C116.498 138.145 118.73 137.867 120.954 138.005C120.954 138.005 127.358 143.116 129.191 142.68C129.395 142.633 129.58 142.526 129.722 142.375C130.275 141.764 129.87 140.518 129.534 139.739C129.355 139.334 129.191 139.051 129.191 139.051L129.488 139.128C130.081 139.264 130.637 139.525 131.118 139.892C133.827 143.376 136.355 146.991 138.692 150.725C139.417 152.047 138.512 166.54 137.802 176.419Z" fill="#8DD88B"/>
<path d="M120.697 138.219C120.697 138.219 120.253 134.353 120.697 134.315C121.142 134.276 127.717 136.966 128.216 137.936C128.721 139.458 129.114 141.012 129.394 142.589C129.394 142.589 127.413 144.048 120.697 138.219Z" fill="#FF814F"/>
<path d="M129.425 142.589L129.168 137.753L129.215 136.332C129.215 136.332 131.141 136.958 131.617 137.569C132.093 138.18 131.937 140.885 131.937 140.885C131.937 140.885 131.656 142.52 129.425 142.589Z" fill="#FF814F"/>
<path d="M129.69 186.61L129.098 186.664C131.149 175.83 129.807 151.81 129.191 142.673C129.395 142.625 129.58 142.519 129.722 142.367C130.346 151.245 131.734 175.51 129.69 186.61Z" fill="#FF814F"/>
<g style="mix-blend-mode:multiply" opacity="0.5">
<path d="M137.802 176.418C137.42 181.644 137.1 185.586 137.1 185.586C137.1 185.586 134.144 186.182 129.69 186.618L129.098 186.671C123.099 187.214 114.644 187.435 107 185.586L110.955 169.359L112.257 157.739C113.899 157.162 115.612 156.808 117.351 156.684C117.578 161.899 119.814 166.835 123.609 170.498C127.404 174.162 132.476 176.28 137.802 176.426V176.418Z" fill="#39656B"/>
</g>
<path d="M170.937 167.9V170.688H128.481L135.369 168.412L136.905 167.9H170.937Z" fill="#C7762F"/>
<path d="M165.352 170.688H128.481V205.122H165.352V170.688Z" fill="#F5AD49"/>
<path d="M145.634 199.698H130.143V201.814H145.634V199.698Z" fill="#C7762F"/>
<path d="M140.54 197.245H130.143V198.781H140.54V197.245Z" fill="#C7762F"/>
<path d="M162.505 175.655C162.507 176.202 162.342 176.738 162.032 177.194C161.723 177.65 161.282 178.006 160.766 178.216C160.249 178.426 159.681 178.482 159.133 178.375C158.584 178.269 158.08 178.005 157.685 177.618C157.29 177.231 157.02 176.737 156.912 176.2C156.803 175.663 156.86 175.106 157.074 174.6C157.289 174.095 157.652 173.663 158.118 173.359C158.583 173.056 159.13 172.895 159.689 172.896C160.435 172.899 161.15 173.19 161.678 173.707C162.206 174.223 162.503 174.924 162.505 175.655Z" fill="#C7762F"/>
<g style="mix-blend-mode:screen" opacity="0.5">
<path d="M128.481 205.115H130.143V170.681H128.481V205.115Z" fill="#F5AD49"/>
</g>
<path d="M170.937 167.9V201.951L165.352 205.122V170.688L166.842 169.947L170.937 167.9Z" fill="#E38C3B"/>
<g style="mix-blend-mode:multiply" opacity="0.5">
<path d="M170.937 195.564V201.951L165.36 205.122V170.689L166.85 169.925C166.709 175.16 166.944 180.399 167.552 185.602C167.744 188.07 168.312 190.495 169.236 192.799C169.673 193.792 170.245 194.722 170.937 195.564Z" fill="#E38C3B"/>
</g>
<g style="mix-blend-mode:multiply" opacity="0.5">
<path d="M170.937 167.9V168.29C159.131 169.757 147.185 169.798 135.369 168.412L136.929 167.9H170.937Z" fill="#C7762F"/>
</g>
<path d="M134.55 201.852C134.55 201.852 137.444 202.066 137.615 201.661C137.787 201.256 134.909 200.347 134.909 200.347L132.413 198.735C130.751 196.787 129.051 194.808 127.358 192.814L127.023 193.036C125.72 194.087 124.341 195.044 122.897 195.901C122.374 196.374 121.836 196.848 121.282 197.306C123.443 199.186 125.635 201.042 127.873 202.906C128.653 203.976 130.478 206.115 130.478 206.115C131.117 206.231 131.77 206.247 132.413 206.161C133.091 206.182 133.769 206.123 134.433 205.985C134.707 206.014 134.984 205.985 135.245 205.899C135.506 205.813 135.745 205.673 135.946 205.489C136.532 205.662 137.148 205.713 137.755 205.64C138.362 205.566 138.947 205.369 139.472 205.061H137.803L134.55 201.852Z" fill="#EBAF7F"/>
<path d="M132.311 196.764L131.04 197.742L126.687 201.348L125.642 202.188C125.642 202.188 101.595 181.194 100.573 177.595C100.144 176.067 100.425 173.194 100.877 170.307C101.598 165.951 102.691 161.663 104.145 157.487C106.033 152.032 109.184 143.49 111.353 140.808C111.454 140.686 111.548 140.572 111.641 140.48C111.735 140.388 111.883 140.251 112 140.144C116.54 136.148 123.7 139.976 123.138 145.92C123.091 146.609 122.955 147.289 122.733 147.944L122.163 149.694L120.869 153.644L114.59 174.692L132.311 196.764Z" fill="#8DD88B"/>
<g style="mix-blend-mode:multiply" opacity="0.5">
<path d="M132.311 196.733L131.071 197.742L110.76 173.997L112.328 172.942L109.98 169.29L113.888 170.689L122.148 149.694L120.853 153.644L114.574 174.692L132.311 196.733Z" fill="#39656B"/>
</g>
<g style="mix-blend-mode:screen" opacity="0.5">
<path d="M126.687 201.348L125.642 202.188C125.642 202.188 101.595 181.194 100.573 177.595C100.144 176.067 100.425 173.195 100.877 170.307C101.598 165.951 102.691 161.663 104.145 157.487C106.033 152.032 109.184 143.49 111.353 140.809C109.278 147.096 100.534 173.959 101.454 176.953C102.375 179.948 122.967 198.055 126.687 201.348Z" fill="#FF7A46"/>
</g>
<path d="M124.519 187.046C123.474 185.946 122.483 184.8 121.493 183.654C120.502 182.508 119.543 181.362 118.591 180.17C117.639 178.978 116.696 177.809 115.791 176.602L114.426 174.791C113.989 174.172 113.537 173.569 113.108 172.942C113.638 173.492 114.129 174.058 114.668 174.623L116.157 176.335C117.148 177.481 118.107 178.627 119.059 179.818C120.011 181.01 120.954 182.179 121.859 183.386C122.764 184.593 123.661 185.8 124.519 187.046Z" fill="#FF814F"/>
<path d="M122.164 149.656C121.657 151.772 121.087 153.873 120.51 155.966C119.933 158.06 119.317 160.145 118.716 162.239C118.115 164.332 117.46 166.403 116.797 168.473L115.783 171.575C115.432 172.606 115.097 173.645 114.722 174.669C114.972 173.607 115.253 172.553 115.502 171.499L116.353 168.351C116.93 166.257 117.554 164.172 118.154 162.078C118.755 159.985 119.41 157.922 120.073 155.844C120.736 153.766 121.43 151.688 122.164 149.656Z" fill="#FF814F"/>
<path d="M139.511 124.268C139.235 123.515 138.829 122.814 138.309 122.197C138.002 121.796 137.74 121.363 137.529 120.906C137.217 117.086 136.297 113.518 135.759 112.502C134.916 110.875 130.392 109.446 125.946 110.21C121.5 110.974 117.78 113.946 117.608 115.78C117.538 116.467 117.203 119.218 119.582 125.964C120.214 127.97 121.278 129.819 122.702 131.388C123.719 132.407 124.955 133.19 126.321 133.68C127.5 134.118 128.782 134.219 130.018 133.971L130.86 133.818C132.398 133.562 133.802 132.806 134.846 131.671C135.641 130.84 136.287 129.885 136.757 128.844C137.162 127.906 137.424 126.915 137.537 125.903C138.153 125.897 138.748 125.69 139.23 125.314C139.377 125.186 139.482 125.019 139.532 124.833C139.581 124.646 139.574 124.45 139.511 124.268Z" fill="#EBAF7F"/>
<path d="M122.803 124.023C122.631 123.78 122.512 123.504 122.452 123.214C122.378 122.907 122.378 122.588 122.452 122.282C122.503 122.106 122.603 121.949 122.741 121.827C122.879 121.706 123.049 121.625 123.232 121.594C123.581 121.536 123.939 121.607 124.238 121.793C124.78 122.131 125.192 122.636 125.408 123.229C125.556 123.813 125.556 124.425 125.408 125.009C125.378 124.44 125.262 123.879 125.065 123.344C124.818 122.859 124.444 122.448 123.981 122.152C123.891 122.072 123.783 122.015 123.666 121.983C123.55 121.952 123.427 121.947 123.308 121.97C123.189 121.993 123.078 122.043 122.982 122.116C122.886 122.188 122.809 122.282 122.756 122.389C122.668 122.633 122.639 122.895 122.671 123.153C122.664 123.448 122.709 123.743 122.803 124.023Z" fill="#E48855"/>
<path d="M124.293 125.17C124.035 125.032 123.838 124.806 123.739 124.535C123.633 124.266 123.587 123.976 123.607 123.687C123.623 123.377 123.759 123.084 123.989 122.87C124.099 122.763 124.241 122.694 124.395 122.675C124.549 122.655 124.705 122.686 124.839 122.763C124.719 122.768 124.601 122.8 124.495 122.857C124.39 122.914 124.299 122.994 124.231 123.091C124.114 123.284 124.05 123.502 124.043 123.726C123.984 124.22 124.071 124.721 124.293 125.17Z" fill="#E48855"/>
<path d="M133.903 127.293C134.137 127.37 134.324 127.484 134.534 127.568C134.745 127.653 134.948 127.744 135.166 127.866C134.921 127.904 134.671 127.867 134.449 127.759C134.224 127.66 134.034 127.498 133.903 127.293Z" fill="#E48855"/>
<path d="M133.333 125.467C133.812 125.969 134.364 126.399 134.971 126.743C135.267 126.91 135.581 127.043 135.907 127.14C136.251 127.241 136.599 127.322 136.952 127.385C136.213 127.581 135.425 127.482 134.76 127.11C134.43 126.93 134.134 126.695 133.887 126.415C133.639 126.139 133.451 125.816 133.333 125.467Z" fill="#E48855"/>
<path d="M135.665 125.376C135.736 125.328 135.821 125.304 135.907 125.307C135.974 125.305 136.039 125.323 136.094 125.36C136.152 125.395 136.198 125.446 136.227 125.506C136.253 125.585 136.253 125.671 136.227 125.75C136.15 125.764 136.07 125.764 135.993 125.75C135.935 125.749 135.879 125.733 135.829 125.704C135.785 125.671 135.748 125.629 135.72 125.582C135.693 125.516 135.675 125.446 135.665 125.376Z" fill="#E48855"/>
<path d="M135.08 122.22C135.08 122.832 134.706 123.328 134.238 123.328C133.77 123.328 133.396 122.832 133.396 122.22C133.396 121.609 133.778 121.113 134.238 121.113C134.698 121.113 135.08 121.609 135.08 122.22Z" fill="#5E2B13"/>
<path d="M135.424 119.004C135.112 118.984 134.799 118.984 134.488 119.004C134.164 119.006 133.84 119.032 133.52 119.08C133.197 119.13 132.879 119.207 132.569 119.309C132.253 119.418 131.943 119.543 131.641 119.684C131.588 119.707 131.528 119.709 131.474 119.689C131.42 119.669 131.376 119.629 131.352 119.577C131.333 119.535 131.328 119.489 131.336 119.444C131.344 119.399 131.366 119.357 131.399 119.325C131.673 119.076 131.977 118.861 132.304 118.683C132.634 118.5 132.988 118.361 133.357 118.27C133.722 118.166 134.099 118.107 134.48 118.095C134.872 118.085 135.263 118.132 135.642 118.232C135.717 118.276 135.777 118.341 135.813 118.419C135.848 118.497 135.858 118.585 135.841 118.669C135.824 118.752 135.781 118.829 135.717 118.888C135.653 118.947 135.573 118.984 135.486 118.996L135.424 119.004Z" fill="#5E2B13"/>
<path d="M136.172 118.293C136.19 118.376 136.187 118.462 136.162 118.544C136.138 118.625 136.093 118.699 136.032 118.759C135.907 118.87 135.757 118.951 135.595 118.996C135.542 119.003 135.488 118.991 135.443 118.962C135.398 118.933 135.365 118.889 135.35 118.838C135.335 118.788 135.338 118.733 135.361 118.685C135.383 118.637 135.422 118.599 135.47 118.576H135.548C135.653 118.6 135.763 118.6 135.868 118.576C135.914 118.56 135.955 118.53 135.985 118.492C136.018 118.45 136.04 118.4 136.047 118.347C136.051 118.329 136.061 118.314 136.075 118.302C136.089 118.291 136.107 118.285 136.125 118.286C136.141 118.283 136.158 118.286 136.172 118.293Z" fill="#5E2B13"/>
<path d="M133.029 128.653C133.029 129.4 132.803 130.129 132.381 130.75C131.958 131.371 131.358 131.856 130.654 132.143C129.951 132.431 129.177 132.508 128.429 132.365C127.681 132.222 126.993 131.866 126.451 131.341C125.91 130.815 125.539 130.145 125.386 129.414C125.233 128.683 125.303 127.924 125.59 127.232C125.876 126.541 126.365 125.947 126.995 125.527C127.624 125.107 128.367 124.879 129.129 124.871C129.639 124.865 130.146 124.959 130.62 125.146C131.093 125.334 131.524 125.611 131.887 125.963C132.249 126.315 132.537 126.734 132.733 127.196C132.93 127.658 133.03 128.153 133.029 128.653Z" fill="#E9A770"/>
<path d="M128.443 116.544C128.71 119.138 127.926 121.731 126.259 123.764C126.169 123.165 125.913 122.602 125.518 122.137C125.123 121.672 124.605 121.323 124.02 121.128C123.738 121.02 123.434 120.978 123.133 121.008C122.832 121.037 122.543 121.136 122.288 121.296C122.022 121.546 121.829 121.862 121.732 122.21C121.634 122.559 121.635 122.927 121.735 123.275C121.862 123.885 122.133 124.458 122.526 124.949C122.918 125.439 123.422 125.834 123.997 126.101C123.753 126.898 123.424 127.666 123.014 128.393C122.686 129.127 122.11 129.729 121.384 130.097C119.21 127.617 118.053 124.434 118.139 121.166C118.209 119.447 117.718 117.575 118.42 115.994C119.155 114.425 120.339 113.098 121.828 112.174C123.318 111.25 124.963 110.593 126.688 110.233C127.214 110.094 127.757 110.029 128.302 110.042C128.853 110.058 129.381 110.263 129.792 110.623C130.257 111.137 130.501 111.808 130.471 112.495C130.488 113.279 130.313 114.056 129.96 114.761C129.607 115.466 129.087 116.077 128.443 116.544Z" fill="#5E2B13"/>
<path d="M123.029 109.523C123.029 109.523 122.335 109.095 122.928 108.614C123.521 108.132 124.652 108.247 124.488 108.996L123.029 109.523Z" fill="#FF814F"/>
<path d="M118.092 122.732C118.092 122.732 114.574 115.604 120.338 111.005C126.102 106.406 135.291 107.895 136.952 114.122L130.455 117.613L118.092 122.732Z" fill="#8DD88B"/>
<path d="M123.965 109.026C123.965 109.026 130.845 112.548 130.299 117.652L138.325 114.42C138.325 114.42 134.784 105.321 123.965 109.026Z" fill="#58A05A"/>
<path d="M117.125 119.302C117.287 119.167 117.486 119.083 117.697 119.06C117.909 119.037 118.122 119.076 118.31 119.172C118.497 119.269 118.661 119.404 118.789 119.569C118.917 119.734 119.006 119.925 119.051 120.127L119.262 120.891L117.655 121.586C117.358 120.857 117.179 120.086 117.125 119.302Z" fill="#5E2B13"/>
<path d="M125.947 119.478C125.947 119.478 137.647 114.81 137.647 113.137C137.647 113.137 143.177 110.936 145.08 113.305C146.983 115.673 124.324 120.181 124.324 120.181L125.947 119.478Z" fill="#FF814F"/>
</g>
<defs>
<filter id="filter0_ddddd_422_3815" x="-27" y="0" width="444" height="481" filterUnits="userSpaceOnUse" color-interpolation-filters="sRGB">
<feFlood flood-opacity="0" result="BackgroundImageFix"/>
<feColorMatrix in="SourceAlpha" type="matrix" values="0 0 0 0 0 0 0 0 0 0 0 0 0 0 0 0 0 0 127 0" result="hardAlpha"/>
<feOffset/>
<feColorMatrix type="matrix" values="0 0 0 0 0.0705882 0 0 0 0 0.298039 0 0 0 0 0 0 0 0 0.05 0"/>
<feBlend mode="normal" in2="BackgroundImageFix" result="effect1_dropShadow_422_3815"/>
<feColorMatrix in="SourceAlpha" type="matrix" values="0 0 0 0 0 0 0 0 0 0 0 0 0 0 0 0 0 0 127 0" result="hardAlpha"/>
<feOffset dy="4"/>
<feGaussianBlur stdDeviation="4.5"/>
<feColorMatrix type="matrix" values="0 0 0 0 0.0705882 0 0 0 0 0.298039 0 0 0 0 0 0 0 0 0.05 0"/>
<feBlend mode="normal" in2="effect1_dropShadow_422_3815" result="effect2_dropShadow_422_3815"/>
<feColorMatrix in="SourceAlpha" type="matrix" values="0 0 0 0 0 0 0 0 0 0 0 0 0 0 0 0 0 0 127 0" result="hardAlpha"/>
<feOffset dy="17"/>
<feGaussianBlur stdDeviation="8.5"/>
<feColorMatrix type="matrix" values="0 0 0 0 0.0705882 0 0 0 0 0.298039 0 0 0 0 0 0 0 0 0.04 0"/>
<feBlend mode="normal" in2="effect2_dropShadow_422_3815" result="effect3_dropShadow_422_3815"/>
<feColorMatrix in="SourceAlpha" type="matrix" values="0 0 0 0 0 0 0 0 0 0 0 0 0 0 0 0 0 0 127 0" result="hardAlpha"/>
<feOffset dy="38"/>
<feGaussianBlur stdDeviation="11.5"/>
<feColorMatrix type="matrix" values="0 0 0 0 0.0705882 0 0 0 0 0.298039 0 0 0 0 0 0 0 0 0.03 0"/>
<feBlend mode="normal" in2="effect3_dropShadow_422_3815" result="effect4_dropShadow_422_3815"/>
<feColorMatrix in="SourceAlpha" type="matrix" values="0 0 0 0 0 0 0 0 0 0 0 0 0 0 0 0 0 0 127 0" result="hardAlpha"/>
<feOffset dy="67"/>
<feGaussianBlur stdDeviation="13.5"/>
<feColorMatrix type="matrix" values="0 0 0 0 0.0705882 0 0 0 0 0.298039 0 0 0 0 0 0 0 0 0.01 0"/>
<feBlend mode="normal" in2="effect4_dropShadow_422_3815" result="effect5_dropShadow_422_3815"/>
<feBlend mode="normal" in="SourceGraphic" in2="effect5_dropShadow_422_3815" result="shape"/>
</filter>
<linearGradient id="paint0_linear_422_3815" x1="52.2053" y1="310.363" x2="52.3924" y2="336.309" gradientUnits="userSpaceOnUse">
<stop offset="0.24" stop-color="#9C9C9C"/>
<stop offset="1" stop-color="white" stop-opacity="0"/>
</linearGradient>
<radialGradient id="paint1_radial_422_3815" cx="0" cy="0" r="1" gradientUnits="userSpaceOnUse" gradientTransform="translate(242.736 316.892) scale(42.1434 3.7151)">
<stop offset="0.41" stop-color="#9C9C9C"/>
<stop offset="1" stop-color="white" stop-opacity="0"/>
</radialGradient>
<radialGradient id="paint2_radial_422_3815" cx="0" cy="0" r="1" gradientUnits="userSpaceOnUse" gradientTransform="translate(132.311 314.92) scale(40.56 2.78096)">
<stop offset="0.41" stop-color="#9C9C9C"/>
<stop offset="1" stop-color="white" stop-opacity="0"/>
</radialGradient>
</defs>
</svg>
