<svg width="390" height="381" viewBox="0 0 390 381" fill="none" xmlns="http://www.w3.org/2000/svg">
<path d="M327.107 353.332C306.71 345.437 297.35 324.185 293.208 304.099C292.514 300.746 291.289 297.325 292.202 294.033C293.115 290.741 296.406 287.868 299.791 288.562C302.607 289.141 304.409 291.754 306.398 293.804C309.057 296.536 312.454 298.478 316.195 299.405C318.628 300.007 321.475 300.052 323.332 298.407C325.89 296.121 325.274 292.097 324.447 288.79L319.837 270.319C319.011 267.02 318.184 263.644 318.472 260.253C318.761 256.862 320.383 253.395 323.394 251.787C326.405 250.18 330.82 251.025 332.286 254.134C332.902 255.415 332.957 256.878 333.386 258.226C333.815 259.575 334.837 260.947 336.264 261.023C337.692 261.099 338.838 259.842 339.618 258.638C342.301 254.493 343.627 249.639 344.805 244.846C345.983 240.053 347.075 235.168 349.36 230.794C351.646 226.42 355.335 222.511 360.117 221.117C364.898 219.722 370.779 221.452 373.135 225.818C375.49 230.185 373.86 235.58 371.746 240.053C368.608 246.69 364.504 252.849 359.563 258.341C358.681 259.324 357.714 260.39 357.605 261.716C357.402 264.086 360.078 265.785 362.48 265.991C365.202 266.227 367.885 265.336 370.6 265.031C373.314 264.726 376.45 265.199 378.041 267.401C380.248 270.449 378.213 274.678 375.927 277.657C371.35 283.628 365.754 288.784 359.383 292.897C357.114 294.36 354.703 295.755 353.081 297.927C351.459 300.098 350.998 303.36 352.777 305.409C354.555 307.459 357.855 307.482 360.351 306.408C362.847 305.333 364.843 303.405 367.113 301.912C371.349 299.115 377.433 298.033 381.372 301.272C383.953 303.405 385.006 306.956 384.757 310.271C384.507 313.586 383.15 316.695 381.637 319.636C376.224 329.946 368.346 339.09 358.44 345.186C348.534 351.282 338.768 354.65 327.107 353.309" fill="#FFDAD6"/>
<path d="M312.289 339.616C313.04 327.975 314.475 316.386 316.586 304.907C317.106 301.859 317.642 298.844 318.193 295.862C318.724 292.898 319.254 289.956 319.956 287.106C321.307 281.643 322.969 276.258 324.932 270.975C326.765 265.923 328.7 261.191 330.541 256.779C332.381 252.367 334.191 248.29 336.001 244.64C338.819 238.866 342.105 233.321 345.829 228.059C347.139 226.2 348.208 224.782 348.949 223.838C349.307 223.39 349.588 223.032 349.791 222.763C349.881 222.635 349.985 222.517 350.103 222.413C350.029 222.551 349.942 222.684 349.846 222.809L349.066 223.914C348.364 224.889 347.326 226.322 346.047 228.196C342.421 233.503 339.204 239.066 336.422 244.838C334.651 248.488 332.873 252.565 331.048 256.977C329.222 261.389 327.319 266.121 325.502 271.181C323.562 276.454 321.919 281.826 320.58 287.274C319.886 290.109 319.363 293.027 318.833 295.999C318.302 298.971 317.772 301.988 317.234 305.036C315.124 316.492 313.676 328.054 312.897 339.669" fill="#E0E0E0"/>
<path d="M320.128 287.045C319.85 286.625 319.622 286.175 319.449 285.704C319.051 284.836 318.513 283.555 317.889 281.963C316.61 278.778 314.995 274.343 313.209 269.405C311.423 264.467 309.777 260.063 308.459 256.908C307.796 255.331 307.25 254.058 306.86 253.182C306.627 252.739 306.449 252.271 306.329 251.788C306.637 252.188 306.898 252.62 307.109 253.075C307.57 253.921 308.178 255.171 308.896 256.733C310.331 259.857 312.078 264.269 313.841 269.192C315.604 274.114 317.117 278.45 318.31 281.803L319.691 285.613C319.887 286.074 320.033 286.554 320.128 287.045Z" fill="#E0E0E0"/>
<path d="M361.741 268.986C361.198 269.242 360.631 269.446 360.048 269.595C358.956 269.946 357.373 270.456 355.43 271.119C351.53 272.461 346.25 274.503 340.501 277.01C334.753 279.517 329.651 282.008 326.017 283.913C324.191 284.858 322.733 285.658 321.727 286.199C321.219 286.514 320.684 286.785 320.128 287.007C320.582 286.624 321.073 286.285 321.594 285.994C322.569 285.376 323.996 284.515 325.798 283.525C329.386 281.513 334.472 278.953 340.236 276.431C345.15 274.266 350.174 272.351 355.29 270.693C357.248 270.06 358.862 269.618 359.97 269.336C360.547 269.162 361.14 269.044 361.741 268.986Z" fill="#E0E0E0"/>
<path d="M312.632 338.709C312.474 338.576 312.332 338.425 312.211 338.259L311.095 336.895C310.128 335.699 308.755 333.939 307.133 331.752C303.849 327.363 299.512 321.16 294.817 314.264C290.121 307.368 285.839 301.127 282.656 296.677L278.866 291.419C278.452 290.848 278.086 290.375 277.844 289.987C277.602 289.598 277.501 289.476 277.524 289.461C277.547 289.446 277.68 289.598 277.945 289.91L279.061 291.274C280.028 292.463 281.401 294.223 283.023 296.418C286.307 300.807 290.644 307.002 295.347 313.906C300.05 320.809 304.317 327.043 307.499 331.485L311.29 336.743L312.312 338.183C312.538 338.511 312.655 338.694 312.632 338.709Z" fill="#E0E0E0"/>
<path d="M366.077 307.086C365.921 307.23 365.745 307.353 365.555 307.452L363.995 308.389L358.277 311.787C353.441 314.66 346.819 318.699 339.511 323.172C332.202 327.645 325.525 331.63 320.635 334.404C318.193 335.79 316.196 336.888 314.808 337.627L313.201 338.465C313.019 338.574 312.822 338.659 312.616 338.717C312.773 338.573 312.949 338.45 313.139 338.351L314.699 337.414L320.416 334.015C325.252 331.142 331.874 327.104 339.191 322.631C346.507 318.158 353.168 314.18 358.059 311.406C360.5 310.02 362.489 308.915 363.886 308.176L365.492 307.345C365.674 307.232 365.871 307.145 366.077 307.086Z" fill="#E0E0E0"/>
<path d="M69.8235 83.5145C68.2106 79.1288 65.5836 75.1658 62.1468 71.9339C58.7101 68.702 54.5564 66.2883 50.0089 64.8808C45.4614 63.4733 40.6427 63.1099 35.928 63.8188C31.2132 64.5278 26.7295 66.2899 22.8257 68.9682C18.9219 71.6464 15.7033 75.1686 13.4205 79.2605C11.1376 83.3524 9.85199 87.9037 9.66371 92.5603C9.47542 97.2169 10.3895 101.853 12.3349 106.108C14.2803 110.363 17.2044 114.122 20.8798 117.093L21.0003 117.172C22.7974 118.619 24.6867 119.442 26.819 120.876L51.8546 136.797C52.5812 137.257 53.407 137.546 54.2672 137.643C55.1275 137.739 55.9988 137.639 56.8129 137.351C57.6271 137.063 58.3619 136.595 58.9599 135.983C59.5579 135.372 60.0028 134.633 60.2598 133.825L68.9262 106.393C69.792 104.109 70.5268 101.779 71.1273 99.415L71.1628 99.3539C72.1748 94.0521 71.7122 88.5822 69.8235 83.5145ZM45.2646 106.226C42.7261 107.124 39.9721 107.266 37.3509 106.634C34.7297 106.003 32.359 104.626 30.5387 102.679C28.7184 100.731 27.5301 98.2995 27.1242 95.6921C26.7183 93.0847 27.1129 90.4182 28.2582 88.0299C29.4035 85.6416 31.2481 83.6387 33.5586 82.2745C35.8691 80.9103 38.5418 80.2461 41.2388 80.3659C43.9357 80.4856 46.5357 81.3839 48.71 82.9473C50.8843 84.5106 52.5353 86.6687 53.4541 89.1487C54.6862 92.4742 54.5156 96.1417 52.9798 99.3443C51.4439 102.547 48.6687 105.022 45.2646 106.226Z" fill="#A1CED5"/>
<path d="M336.851 146.373C336.868 143.853 336.288 141.363 335.156 139.099C334.025 136.834 332.373 134.856 330.329 133.319C328.285 131.782 325.905 130.728 323.374 130.239C320.844 129.75 318.232 129.839 315.743 130.5C313.254 131.16 310.955 132.374 309.026 134.047C307.097 135.72 305.59 137.806 304.624 140.142C303.657 142.478 303.257 145.001 303.454 147.514C303.651 150.026 304.44 152.46 305.76 154.625L305.807 154.686C306.446 155.738 307.25 156.5 308.061 157.604L317.772 170.17C318.053 170.534 318.416 170.83 318.834 171.034C319.251 171.237 319.712 171.343 320.178 171.343C320.645 171.343 321.105 171.237 321.523 171.034C321.941 170.83 322.304 170.534 322.585 170.17L332.132 157.81C333.003 156.809 333.815 155.761 334.565 154.671V154.625C336.069 152.123 336.858 149.274 336.851 146.373ZM320.128 153.482C318.673 153.481 317.252 153.058 316.043 152.267C314.835 151.477 313.893 150.354 313.338 149.041C312.782 147.728 312.638 146.283 312.922 144.89C313.207 143.497 313.908 142.217 314.937 141.213C315.966 140.209 317.277 139.525 318.703 139.248C320.13 138.972 321.608 139.114 322.952 139.658C324.296 140.203 325.444 141.124 326.252 142.305C327.06 143.487 327.491 144.876 327.491 146.296C327.491 147.241 327.3 148.176 326.93 149.048C326.56 149.92 326.018 150.713 325.334 151.38C324.65 152.047 323.838 152.577 322.945 152.937C322.052 153.298 321.094 153.483 320.128 153.482Z" fill="#FFDAD6"/>
<path d="M367.668 353.393C367.668 353.507 290.355 353.591 195.008 353.591C99.6605 353.591 22.3313 353.507 22.3313 353.393C22.3313 353.278 99.6293 353.195 195.008 353.195C290.386 353.195 367.668 353.286 367.668 353.393Z" fill="#263238"/>
<path d="M147.693 90.6322L152.825 161.651C153.232 167.239 155.792 172.47 159.99 176.288C164.187 180.106 169.71 182.227 175.445 182.225C178.55 182.225 181.621 181.603 184.469 180.396C187.317 179.189 189.881 177.423 192.002 175.209C194.123 172.994 195.755 170.377 196.798 167.521C197.841 164.664 198.273 161.629 198.065 158.603C197.613 151.844 197.2 146.312 197.2 146.312C197.2 146.312 214.804 143.637 215.023 126.446C215.147 116.54 213.392 93.985 211.903 76.7257C211.41 71.0977 208.773 65.8552 204.514 62.0355C200.254 58.2157 194.682 56.097 188.9 56.0984H178.238C173.889 56.3462 169.635 57.4438 165.729 59.3263C161.822 61.2088 158.341 63.8379 155.493 67.0579C152.645 70.2779 150.487 74.0235 149.148 78.0728C147.808 82.1221 147.313 86.3928 147.693 90.6322Z" fill="#B78876"/>
<path d="M197.215 146.098C197.215 146.098 186.092 146.982 174.275 139.728C174.275 139.728 179.696 152.103 197.254 150.556L197.215 146.098Z" fill="#AA6550"/>
<path d="M206.404 97.5361C206.41 98.1765 206.16 98.794 205.707 99.2568C205.254 99.7195 204.633 99.9907 203.978 100.013C203.659 100.037 203.337 99.9997 203.033 99.9015C202.729 99.8032 202.448 99.6465 202.207 99.4406C201.965 99.2347 201.769 98.9838 201.628 98.7025C201.488 98.4212 201.406 98.1153 201.388 97.8028C201.382 97.1629 201.63 96.5456 202.082 96.0819C202.533 95.6182 203.152 95.3444 203.806 95.3187C204.127 95.2938 204.449 95.3318 204.754 95.4304C205.059 95.529 205.341 95.6863 205.583 95.8929C205.825 96.0995 206.022 96.3513 206.163 96.6335C206.304 96.9157 206.386 97.2226 206.404 97.5361Z" fill="#263238"/>
<path d="M208.837 94.0004C208.525 94.3204 206.622 92.9488 203.923 92.9564C201.224 92.9641 199.243 94.2823 198.939 93.9623C198.799 93.8175 199.118 93.2003 199.976 92.6212C201.147 91.8305 202.539 91.4127 203.962 91.4248C205.364 91.4192 206.73 91.8518 207.862 92.6593C208.712 93.2841 208.993 93.8632 208.837 94.0004Z" fill="#263238"/>
<path d="M180.016 97.536C180.023 98.1764 179.773 98.7939 179.319 99.2567C178.866 99.7194 178.246 99.9906 177.59 100.012C177.271 100.037 176.95 99.9996 176.646 99.9014C176.341 99.8031 176.06 99.6464 175.819 99.4405C175.578 99.2346 175.381 98.9837 175.241 98.7024C175.1 98.4211 175.019 98.1152 175.001 97.8027C174.994 97.1615 175.244 96.5432 175.697 96.0792C176.15 95.6153 176.771 95.3424 177.427 95.3186C177.746 95.2948 178.068 95.3336 178.372 95.4327C178.676 95.5317 178.957 95.6892 179.198 95.8957C179.44 96.1022 179.636 96.3536 179.777 96.6353C179.917 96.917 179.998 97.2232 180.016 97.536Z" fill="#263238"/>
<path d="M182.263 94.488C181.951 94.808 180.04 93.4288 177.341 93.4364C174.642 93.444 172.661 94.7699 172.357 94.4423C172.216 94.2975 172.528 93.726 173.394 93.1088C174.567 92.3221 175.957 91.9022 177.38 91.9048C178.78 91.9096 180.143 92.3412 181.28 93.1392C182.13 93.7717 182.411 94.3508 182.263 94.488Z" fill="#263238"/>
<path d="M192.075 114.087C192.075 113.934 193.744 113.652 196.466 113.325C197.153 113.248 197.808 113.119 197.925 112.654C197.985 111.958 197.824 111.261 197.465 110.658C196.82 109.027 196.139 107.315 195.421 105.522C192.59 98.2065 190.531 92.1943 190.835 92.0876C191.139 91.9809 193.682 97.8179 196.521 105.125C197.202 106.934 197.855 108.659 198.479 110.299C198.736 111.061 199.189 111.93 198.83 112.944C198.732 113.182 198.579 113.394 198.382 113.565C198.186 113.735 197.952 113.859 197.699 113.927C197.318 114.032 196.924 114.086 196.529 114.087C193.783 114.224 192.083 114.239 192.075 114.087Z" fill="#263238"/>
<path d="M184.119 115.916C184.556 115.916 184.564 118.758 187.075 120.792C189.587 122.827 192.707 122.514 192.73 122.911C192.777 123.094 192.036 123.467 190.718 123.505C188.998 123.529 187.324 122.959 185.991 121.897C184.711 120.876 183.889 119.409 183.698 117.805C183.589 116.586 183.916 115.9 184.119 115.916Z" fill="#263238"/>
<path d="M182.957 84.1401C182.692 84.9021 179.993 84.5211 176.818 84.9021C173.644 85.2831 171.077 86.1213 170.656 85.4736C170.469 85.1688 170.914 84.4906 171.951 83.7972C173.33 82.9458 174.89 82.4121 176.511 82.2366C178.133 82.061 179.774 82.2481 181.311 82.7837C182.52 83.2409 183.074 83.82 182.957 84.1401Z" fill="#263238"/>
<path d="M207.846 86.3574C207.371 86.9594 205.506 86.3574 203.268 86.304C201.029 86.2507 199.134 86.7079 198.697 86.0831C198.502 85.7783 198.798 85.1763 199.633 84.6048C200.746 83.9237 202.042 83.5817 203.354 83.6224C204.667 83.6631 205.938 84.0847 207.004 84.8334C207.792 85.443 208.057 86.1059 207.846 86.3574Z" fill="#263238"/>
<path d="M153.66 103.533C153.356 103.403 141.57 100.043 141.96 111.793C142.35 123.543 154.339 120.746 154.354 120.404C154.37 120.061 153.66 103.533 153.66 103.533Z" fill="#B78876"/>
<path d="M150.493 116.068C150.439 116.068 150.29 116.22 149.939 116.388C149.449 116.609 148.891 116.639 148.379 116.472C147.092 116.053 145.961 114.117 145.829 111.999C145.769 110.992 145.937 109.986 146.32 109.05C146.425 108.675 146.622 108.332 146.894 108.049C147.166 107.766 147.504 107.552 147.88 107.427C148.119 107.357 148.376 107.372 148.605 107.468C148.835 107.564 149.022 107.735 149.136 107.952C149.308 108.273 149.237 108.509 149.3 108.532C149.362 108.554 149.557 108.326 149.44 107.838C149.363 107.551 149.187 107.298 148.941 107.122C148.774 107.004 148.584 106.92 148.383 106.874C148.183 106.828 147.974 106.822 147.771 106.855C147.281 106.967 146.828 107.199 146.455 107.53C146.082 107.861 145.802 108.279 145.642 108.745C145.167 109.78 144.956 110.912 145.025 112.044C145.181 114.414 146.492 116.616 148.247 117.028C148.574 117.11 148.915 117.119 149.246 117.054C149.577 116.99 149.888 116.853 150.158 116.655C150.478 116.357 150.54 116.091 150.493 116.068Z" fill="#AA6550"/>
<path d="M146.936 103.137C148.769 102.702 151.944 104.356 152.724 106.032C153.504 107.709 153.676 109.614 154.456 111.298C155.236 112.982 156.998 114.49 158.839 114.064C159.461 113.874 160.02 113.526 160.46 113.056C160.9 112.586 161.205 112.011 161.343 111.389C161.608 110.134 161.621 108.84 161.382 107.579C160.672 102.093 159.494 96.652 159.268 91.1199C159.042 85.5878 159.845 79.8499 162.817 75.1179C165.789 70.3859 171.241 66.9416 176.857 67.3912C180.593 67.6808 184.025 69.5858 187.738 70.0963C189.95 70.3821 192.2 70.1718 194.316 69.4813C196.433 68.7907 198.361 67.6382 199.953 66.1111C200.359 65.7224 202.23 64.5109 202.23 64.5109C202.23 64.2289 201.957 61.7753 200.967 60.8761C193.596 54.2239 180.32 52.3646 170.586 54.7801C160.851 57.1957 151.725 63.9241 147.537 72.7938C143.348 81.6635 144.596 94.1298 146.905 103.121" fill="#263238"/>
<path d="M212.066 74.1121C212.066 74.1121 165.906 59.6341 145.938 98.6181C145.938 98.6181 142.951 88.8568 142.951 83.6219C142.951 80.1243 145.088 59.3065 167.021 52.7533C167.021 52.7533 200.054 40.4394 212.066 74.1121Z" fill="#FF725E"/>
<path d="M172.38 75.0874C173.2 76.3791 174.316 77.4672 175.64 78.2657C176.964 79.0642 178.46 79.5513 180.009 79.6887C181.559 79.8262 183.12 79.6101 184.569 79.0575C186.019 78.505 187.317 77.6311 188.362 76.5047C188.821 77.6258 189.628 78.5785 190.669 79.2291C191.71 79.8798 192.934 80.1957 194.168 80.1327C195.402 80.0697 196.585 79.6308 197.552 78.8777C198.518 78.1246 199.218 77.095 199.555 75.9332C200.807 77.2958 202.337 78.3862 204.048 79.1336C205.803 79.766 208.026 79.5222 209.173 78.0896C210.319 76.6571 210.007 74.3939 208.853 72.9157C207.592 71.5179 205.978 70.467 204.173 69.8677C198.7 67.5167 192.687 66.6278 186.747 67.2921C180.858 68.0541 175.157 70.8583 171.475 75.415" fill="#263238"/>
<g opacity="0.4">
<path d="M212.066 74.1121C208.226 70.1588 202.961 67.8219 197.387 67.597C183.768 67.0103 158.285 74.4931 145.907 98.6181C145.907 98.6181 142.919 88.8568 142.919 83.6219C142.919 80.1243 145.057 59.3065 166.99 52.7533C167.021 52.7533 200.054 40.4394 212.066 74.1121Z" fill="#58A05A"/>
</g>
<path d="M147.865 94.0537C154.705 83.8201 164.143 75.3619 174.759 68.9077C185.375 62.4536 202.917 56.0299 215.007 52.9057C218.642 51.9609 222.425 51.1379 226.13 51.7627C229.835 52.3876 233.454 54.8107 234.366 58.354C235.521 62.8117 227.424 69.685 223.626 72.3825C219.827 75.0799 212.066 79.05 212.066 79.05C212.066 79.05 212.175 70.7899 198.635 69.0906C180.227 66.736 147.865 94.0537 147.865 94.0537Z" fill="#8DD88B"/>
<path d="M185.726 60.3503C185.726 60.3503 192.371 56.7537 199.056 55.9155C197.94 55.0679 196.722 54.3565 195.429 53.7971C191.801 54.383 188.293 55.5357 185.039 57.2109L185.726 60.3503Z" fill="#E0E0E0"/>
<path d="M223.189 161.132L208.549 157.978L202.589 156.522L197.629 149.009C197.629 149.009 195.289 162.443 186.404 169.674C185.201 170.636 183.791 171.319 182.28 171.673C180.768 172.026 179.195 172.041 177.676 171.717C175.672 171.305 173.316 170.802 171.569 170.345C171.194 170.246 170.789 170.116 170.352 169.964C163.929 167.634 158.578 163.126 155.275 157.261C153.309 153.848 151.648 150.343 152.217 149.009L145.267 163.068L104.317 181.493L81.0654 236.982L126.126 249.997L127.53 295.717L119.044 353.355L246.519 353.438L241.995 225.201" fill="#8DD88B"/>
<path d="M190.234 210.777C189.975 210.797 189.714 210.797 189.454 210.777L187.184 210.723L179.08 210.441H178.924V210.312C178.792 206.875 178.628 202.806 178.448 198.455C178.238 192.184 178.051 186.515 177.902 182.347C177.856 180.32 177.817 178.666 177.785 177.462C177.785 176.921 177.785 176.479 177.785 176.136C177.765 175.982 177.765 175.826 177.785 175.671C177.821 175.821 177.84 175.975 177.84 176.129C177.84 176.479 177.895 176.891 177.926 177.454C177.988 178.658 178.074 180.312 178.175 182.331C178.347 186.499 178.581 192.169 178.838 198.432C178.994 202.791 179.135 206.86 179.26 210.297L179.088 210.137L187.192 210.556L189.454 210.701C189.716 210.698 189.978 210.724 190.234 210.777Z" fill="#263238"/>
<path d="M183.3 192.253C183.479 192.13 183.69 192.061 183.908 192.054C184.415 192.022 184.92 192.134 185.363 192.376C185.806 192.618 186.168 192.98 186.404 193.418C186.627 193.846 186.706 194.331 186.631 194.805C186.548 195.342 186.306 195.844 185.937 196.25C185.567 196.656 185.085 196.948 184.548 197.091C184.005 197.202 183.441 197.165 182.918 196.984C182.395 196.802 181.934 196.484 181.584 196.063C181.301 195.723 181.102 195.324 181.005 194.897C180.907 194.47 180.913 194.026 181.022 193.601C181.143 193.023 181.437 192.493 181.865 192.077C182.161 191.795 182.38 191.704 182.387 191.727C182.395 191.75 182.231 191.887 181.982 192.184C181.636 192.601 181.403 193.096 181.303 193.624C181.224 194.004 181.233 194.397 181.331 194.773C181.428 195.148 181.61 195.498 181.865 195.796C182.177 196.155 182.581 196.427 183.037 196.582C183.492 196.737 183.981 196.771 184.454 196.68C184.915 196.553 185.329 196.301 185.648 195.953C185.967 195.604 186.178 195.175 186.256 194.714C186.321 194.336 186.277 193.948 186.13 193.593C185.983 193.238 185.738 192.929 185.422 192.702C184.994 192.368 184.464 192.183 183.916 192.176C183.511 192.207 183.3 192.283 183.3 192.253Z" fill="#263238"/>
<path d="M181.919 176.152C182.1 175.997 182.322 175.896 182.559 175.862C183.207 175.728 183.882 175.826 184.462 176.136C184.874 176.341 185.226 176.646 185.484 177.02C185.784 177.459 185.934 177.979 185.913 178.506C185.889 179.107 185.679 179.687 185.311 180.17C184.944 180.652 184.436 181.015 183.854 181.211C183.259 181.36 182.632 181.334 182.052 181.136C181.472 180.938 180.964 180.577 180.593 180.099C180.264 179.686 180.066 179.188 180.024 178.666C180 178.217 180.074 177.767 180.242 177.348C180.484 176.751 180.913 176.245 181.467 175.9C181.66 175.759 181.89 175.675 182.13 175.656C182.13 175.656 181.904 175.771 181.561 176.03C181.078 176.392 180.715 176.885 180.515 177.447C180.359 177.849 180.311 178.284 180.377 178.71C180.442 179.136 180.619 179.538 180.89 179.878C181.219 180.288 181.664 180.597 182.169 180.766C182.674 180.935 183.219 180.957 183.737 180.83C184.239 180.656 184.678 180.341 184.998 179.925C185.319 179.509 185.507 179.011 185.539 178.491C185.559 178.064 185.457 177.64 185.243 177.267C185.03 176.893 184.713 176.586 184.33 176.38C183.805 176.078 183.195 175.95 182.59 176.014C182.161 176.068 181.935 176.182 181.919 176.152Z" fill="#263238"/>
<path d="M177.77 237.653C177.77 237.653 177.832 237.614 177.965 237.569L178.55 237.348C179.072 237.172 179.813 236.852 180.757 236.426C183.393 235.128 185.812 233.447 187.933 231.442C191.051 228.442 193.807 225.103 196.147 221.49C199.072 217.098 201.744 212.55 204.149 207.866C208.475 199.329 212.27 190.545 215.514 181.562C216.785 178.117 217.776 175.321 218.47 173.393L219.25 171.168C219.336 170.939 219.414 170.749 219.469 170.597C219.491 170.53 219.519 170.467 219.554 170.406C219.549 170.476 219.533 170.546 219.508 170.612C219.461 170.764 219.398 170.955 219.328 171.198C219.149 171.74 218.907 172.486 218.603 173.484C217.955 175.428 217.004 178.239 215.756 181.691C212.595 190.699 208.838 199.495 204.508 208.026C202.097 212.723 199.409 217.28 196.459 221.673C194.091 225.306 191.295 228.653 188.128 231.648C185.973 233.65 183.51 235.308 180.827 236.563C180.093 236.892 179.341 237.179 178.573 237.424L177.973 237.607C177.908 237.632 177.839 237.647 177.77 237.653Z" fill="#263238"/>
<path d="M204.625 222.435C204.961 222.435 212.722 221.917 212.722 221.917C212.722 221.917 209.516 227.449 206.177 229.537H199.384L204.625 222.435Z" fill="#FAFAFA"/>
<path d="M176.413 254.409C176.546 254.284 176.692 254.174 176.849 254.081L178.16 253.197C179.291 252.435 180.921 251.292 182.879 249.822C186.779 246.903 191.974 242.545 197.527 237.561C200.304 235.069 202.987 232.722 205.28 230.467C207.338 228.489 209.249 226.37 210.998 224.127C212.172 222.614 213.215 221.008 214.118 219.326C214.461 218.74 214.672 218.26 214.835 217.94C214.909 217.771 215.001 217.61 215.108 217.459C215.058 217.635 214.993 217.806 214.913 217.97C214.773 218.298 214.578 218.793 214.258 219.395C213.401 221.115 212.386 222.755 211.224 224.295C209.498 226.576 207.598 228.726 205.538 230.726C203.237 233.012 200.569 235.366 197.792 237.851C192.239 242.834 187.036 247.177 183.05 250.043C181.061 251.483 179.4 252.58 178.246 253.319C177.661 253.685 177.2 253.952 176.888 254.142C176.741 254.248 176.581 254.338 176.413 254.409Z" fill="#263238"/>
<path d="M154.542 339.09C154.542 339.09 154.542 339.021 154.635 338.907C154.729 338.793 154.83 338.61 154.955 338.404C155.244 337.97 155.68 337.33 156.265 336.522C157.435 334.922 159.245 332.666 161.632 330.015C166.437 324.749 173.168 317.563 180.578 309.608L199.68 289.27L205.491 283.174L207.051 281.521L207.472 281.102L207.628 280.965C207.628 280.965 207.589 281.026 207.504 281.125L207.114 281.574L205.554 283.281L199.836 289.491L180.882 309.852L161.85 330.182C159.44 332.803 157.599 335.021 156.39 336.591C155.79 337.353 155.329 338 155.025 338.427L154.674 338.907C154.635 338.971 154.591 339.033 154.542 339.09Z" fill="#263238"/>
<path d="M222.175 160.782C222.846 161.765 237.916 163.403 241.605 167C245.294 170.597 282.165 198.089 282.165 198.089L255.887 232.639L238.93 228.989L222.175 160.782Z" fill="#8DD88B"/>
<path opacity="0.4" d="M277.695 194.737L248.235 230.993L255.887 232.639L282.134 198.052L277.695 194.737Z" fill="black"/>
<path d="M230.201 196.748C230.069 196.355 229.968 195.953 229.897 195.544C229.811 195.156 229.71 194.676 229.64 194.112C229.57 193.548 229.453 192.908 229.414 192.192C229.375 191.475 229.297 190.668 229.297 189.852C229.297 189.037 229.297 188.115 229.367 187.17C229.518 185.115 229.844 183.076 230.342 181.074C230.873 179.082 231.575 177.137 232.44 175.26C232.853 174.407 233.22 173.584 233.665 172.852C234.109 172.121 234.491 171.442 234.889 170.84C235.287 170.238 235.669 169.72 236.012 169.256C236.296 168.857 236.601 168.473 236.925 168.105C237.18 167.774 237.465 167.465 237.775 167.183C237.562 167.54 237.32 167.878 237.05 168.196C236.808 168.516 236.512 168.905 236.2 169.385C235.888 169.865 235.49 170.376 235.131 170.993C234.772 171.61 234.351 172.265 233.961 173.012C233.571 173.759 233.181 174.536 232.783 175.405C231.962 177.274 231.289 179.203 230.771 181.173C230.285 183.15 229.954 185.16 229.78 187.185C229.726 188.123 229.655 189.014 229.679 189.845C229.702 190.675 229.679 191.453 229.741 192.131C229.804 192.809 229.85 193.479 229.905 194.043C229.96 194.607 230.03 195.087 230.092 195.476C230.171 195.896 230.207 196.322 230.201 196.748Z" fill="#263238"/>
<path d="M241.995 225.156C240.787 222.868 239.701 220.52 238.742 218.123C237.656 215.78 236.693 213.384 235.856 210.945C237.064 213.231 238.153 215.576 239.117 217.97C240.205 220.314 241.166 222.713 241.995 225.156Z" fill="#263238"/>
<path d="M126.126 200.056C126.064 200.056 125.432 198.951 124.238 197.236C122.681 195.003 120.899 192.928 118.919 191.041C116.929 189.169 114.755 187.492 112.429 186.035C110.635 184.922 109.457 184.343 109.489 184.282C109.788 184.363 110.076 184.478 110.347 184.625C111.11 184.979 111.854 185.371 112.577 185.799C114.977 187.195 117.202 188.86 119.207 190.759C121.206 192.664 122.976 194.786 124.48 197.084C125.05 197.968 125.479 198.699 125.744 199.225C125.906 199.486 126.034 199.764 126.126 200.056Z" fill="#263238"/>
<path opacity="0.4" d="M81.0654 236.959L82.8828 232.639L132.725 245.897L130.751 251.315L81.0654 236.959Z" fill="black"/>
<path d="M214.126 219.883H233.103V227.503L208.822 227.35C208.822 227.35 212.573 222.938 214.126 219.883Z" fill="#FAFAFA"/>
<g opacity="0.2">
<path d="M146.437 164.744C147.124 170.688 147.872 176.822 150.883 182.034C153.894 187.246 159.783 191.353 165.844 190.477C169.884 189.89 173.308 187.254 176.062 184.297C178.815 181.341 181.124 177.995 184.127 175.29C185.943 177.201 187.973 178.906 190.18 180.373C192.409 181.848 195.085 182.539 197.769 182.331C200.413 182.019 201.872 180.99 202.706 178.521C199.883 179.375 198.331 179.245 195.515 178.719C192.406 178.137 189.486 176.83 187.005 174.909C185.351 173.637 184.751 171.724 182.653 171.861C180.71 171.968 179.189 173.469 177.91 174.909C175.845 177.219 173.58 179.35 171.14 181.28C168.8 183.086 166.538 184.328 163.558 184.244C158.652 184.137 154.635 180.373 151.928 176.372C149.43 172.684 147.584 168.612 146.468 164.325" fill="black"/>
</g>
<path d="M203.876 157.33C203.921 157.469 203.95 157.612 203.962 157.757C203.962 158.039 204.056 158.45 204.11 158.984C204.227 160.05 204.344 161.597 204.391 163.556C204.497 168.565 204.007 173.569 202.932 178.468V178.59V178.712H202.815C200.043 179.347 197.149 179.271 194.415 178.491C192.179 177.907 190.067 176.942 188.175 175.641C186.894 174.791 185.746 173.764 184.766 172.593C184.503 172.277 184.258 171.946 184.033 171.602C183.946 171.485 183.87 171.36 183.807 171.229C185.079 172.855 186.606 174.274 188.331 175.435C190.213 176.677 192.296 177.599 194.493 178.163C197.168 178.901 199.991 178.967 202.698 178.354L202.55 178.498V178.377C203.613 173.503 204.136 168.531 204.11 163.548C204.11 161.635 204.024 160.089 203.962 159.014C203.962 158.519 203.907 158.115 203.884 157.787C203.859 157.636 203.856 157.482 203.876 157.33Z" fill="#263238"/>
<path d="M180.18 172.364C180.118 172.527 180.034 172.681 179.93 172.822C179.669 173.244 179.383 173.651 179.072 174.041C177.908 175.461 176.624 176.784 175.235 177.996C174.369 178.758 173.394 179.603 172.341 180.472C171.811 180.906 171.28 181.364 170.687 181.821C170.077 182.271 169.433 182.676 168.761 183.032C167.317 183.81 165.723 184.285 164.081 184.427C162.289 184.575 160.493 184.187 158.933 183.314C157.414 182.43 156.052 181.311 154.9 180C153.808 178.812 152.793 177.56 151.858 176.251C150.283 174.029 148.952 171.651 147.888 169.156C147.175 167.479 146.591 165.752 146.141 163.99C145.977 163.365 145.876 162.878 145.813 162.542C145.77 162.375 145.744 162.204 145.735 162.032C145.807 162.19 145.859 162.357 145.891 162.527C145.985 162.855 146.11 163.335 146.289 163.952C146.801 165.688 147.423 167.39 148.153 169.05C149.246 171.506 150.592 173.847 152.17 176.037C153.1 177.329 154.111 178.563 155.197 179.733C156.31 181.01 157.627 182.103 159.097 182.971C160.589 183.804 162.305 184.176 164.018 184.038C165.613 183.904 167.163 183.453 168.574 182.712C169.235 182.37 169.869 181.977 170.469 181.539C171.038 181.112 171.584 180.647 172.115 180.221C173.176 179.36 174.158 178.552 175.032 177.79C176.426 176.615 177.73 175.342 178.932 173.98C179.345 173.492 179.65 173.088 179.852 172.814C179.948 172.655 180.058 172.505 180.18 172.364Z" fill="#263238"/>
<path d="M163.379 259.918L169.393 251.353C169.393 251.353 173.527 237.317 172.965 235.351C172.404 233.385 170.578 226.07 171.007 225.979C171.436 225.887 175.937 224.257 178.378 230.124C179.899 233.782 180.399 238.598 180.562 241.706C180.58 242.091 180.683 242.466 180.864 242.808C181.045 243.149 181.299 243.449 181.61 243.685C181.921 243.921 182.28 244.088 182.663 244.176C183.047 244.263 183.445 244.268 183.83 244.191C187.988 243.352 194.907 242.08 196.552 242.468C198.939 243.025 201.076 245.997 201.279 246.995C201.482 247.993 199.844 250.241 199.844 250.241C199.844 250.241 201.872 251.254 202.496 252.786C202.582 252.992 202.652 253.197 202.714 253.396C202.905 254.01 202.928 254.661 202.781 255.287C202.635 255.912 202.324 256.49 201.88 256.962L201.24 257.648C201.24 257.648 203.775 258.326 204.087 259.743C204.256 260.778 204.227 261.835 204.001 262.86L201.622 265.26C202.285 265.864 202.72 266.67 202.855 267.546C202.98 268.857 199.415 272.118 199.415 272.118L184.119 277.452L178.051 278.976L163.379 259.918Z" fill="#B78876"/>
<path d="M199.891 250.256C198.143 250.716 196.373 251.09 194.587 251.376C192.832 251.795 191.056 252.126 189.267 252.367C189.746 252.138 190.252 251.967 190.772 251.856C191.716 251.597 193.034 251.277 194.509 250.988C195.983 250.698 197.317 250.485 198.299 250.363C198.823 250.258 199.358 250.222 199.891 250.256Z" fill="#AA6550"/>
<path d="M201.287 257.647C199.987 258.243 198.631 258.715 197.239 259.057C195.887 259.531 194.492 259.878 193.073 260.093C194.374 259.498 195.729 259.026 197.122 258.684C198.473 258.21 199.868 257.863 201.287 257.647Z" fill="#AA6550"/>
<path d="M202.199 264.94C200.829 265.741 199.391 266.427 197.902 266.989C196.466 267.676 194.974 268.242 193.44 268.681C194.81 267.879 196.248 267.194 197.738 266.631C199.173 265.945 200.666 265.379 202.199 264.94Z" fill="#AA6550"/>
<path d="M128.138 312.847L184.392 275.981L170.196 250.835L118.856 276.629L124.683 249.532L89.8404 239.458L81.12 285.864C79.7784 306.499 96.72 323.157 117.14 317.739C121.055 316.704 124.77 315.052 128.138 312.847Z" fill="#B78876"/>
<path d="M111.423 291.213C111.322 290.994 111.256 290.76 111.228 290.52C111.112 289.878 111.047 289.229 111.033 288.577C111.004 286.409 111.501 284.265 112.484 282.321C113.48 280.382 114.938 278.704 116.735 277.429C117.27 277.041 117.839 276.699 118.435 276.408C118.649 276.286 118.88 276.196 119.122 276.141C119.122 276.21 118.209 276.644 116.906 277.665C115.201 278.966 113.814 280.624 112.848 282.515C111.882 284.407 111.36 286.486 111.322 288.6C111.283 290.2 111.54 291.206 111.423 291.213Z" fill="#AA6550"/>
<path d="M255.887 232.639C256.238 232.166 295.948 255.804 295.948 255.804L308.677 312.458L326.999 319.027C326.999 319.027 332.717 255.979 328.364 246.164C324.012 236.35 279.887 201.039 279.887 201.039L255.887 232.639Z" fill="#B78876"/>
<path d="M304.621 251.46C303.737 252.759 302.56 253.843 301.181 254.63C299.874 255.529 298.376 256.128 296.798 256.382C298.223 255.759 299.613 255.062 300.963 254.295C302.236 253.417 303.457 252.471 304.621 251.46Z" fill="#AA6550"/>
<path d="M208.127 232.76L211.24 287.137L274.7 282.946L272.782 242.468L263.539 230.314L208.127 232.76Z" fill="#263238"/>
<path d="M193.705 288.348C193.892 289.392 199.282 338.64 199.282 338.64L293.732 332.232L309.714 330.137L302.343 284.279L291.057 281.635L193.705 288.348Z" fill="#FF725E"/>
<path opacity="0.4" d="M291.057 281.628L193.705 288.349C193.892 289.392 199.282 338.641 199.282 338.641L297.617 331.958L291.057 281.628Z" fill="black"/>
<path d="M265.184 283.571L211.24 287.137L208.127 232.76L263.539 230.314L265.184 283.571Z" fill="#455A64"/>
<path d="M228.244 231.876L229.382 248.633L232.268 247.017L233.867 248.633L235.856 247.017L238.93 248.633V231.404L228.244 231.876Z" fill="#263238"/>
<path d="M262.946 261.175C263.047 261.229 260.473 266.045 257.205 271.935C253.937 277.825 251.207 282.557 251.105 282.504C251.004 282.451 253.578 277.635 256.846 271.744C260.114 265.854 262.86 261.122 262.946 261.175Z" fill="#263238"/>
<path d="M248.235 299.908L247.923 284.714L235.31 285.544L236.66 300.982L248.235 299.908Z" fill="#FF725E"/>
<path d="M289.365 307.891L268.19 309.854L269.967 328.151L291.142 326.188L289.365 307.891Z" fill="#FAFAFA"/>
<path d="M291.112 326.212C291.086 326.097 291.067 325.98 291.057 325.862C291.057 325.61 290.987 325.283 290.94 324.871C290.846 323.987 290.706 322.73 290.534 321.152C290.199 317.937 289.754 313.395 289.162 307.932L289.349 308.084L268.187 310.073C268.141 310.119 268.531 309.669 268.367 309.86V309.997V310.157V310.462L268.429 311.086L268.546 312.321C268.632 313.136 268.71 313.944 268.788 314.752C268.936 316.36 269.092 317.929 269.24 319.468C269.529 322.516 269.81 325.45 270.059 328.14L269.864 327.988L285.145 326.662L289.481 326.304L290.644 326.22C290.781 326.209 290.919 326.209 291.057 326.22C290.936 326.247 290.814 326.265 290.69 326.273L289.567 326.403L285.277 326.845L269.903 328.369H269.724V328.193C269.451 325.496 269.162 322.585 268.858 319.522C268.713 317.998 268.559 316.426 268.398 314.805C268.32 313.997 268.242 313.19 268.164 312.367C268.125 311.963 268.086 311.551 268.039 311.14L267.985 310.515V310.21V310.05V309.913C267.821 310.103 268.203 309.646 268.172 309.692L289.341 307.764H289.513V307.932C290.012 313.441 290.425 318.028 290.722 321.274C290.854 322.837 290.956 324.079 291.034 324.962C291.034 325.366 291.088 325.686 291.104 325.93C291.113 326.024 291.116 326.118 291.112 326.212Z" fill="#263238"/>
<path d="M287.679 312.298C287.679 312.412 283.99 312.877 279.411 313.35C276.655 313.704 273.883 313.923 271.104 314.005C271.104 313.898 274.794 313.426 279.372 312.953C283.951 312.481 287.672 312.191 287.679 312.298Z" fill="#263238"/>
<path d="M287.555 315.407C286.819 315.666 286.059 315.852 285.285 315.963C283.865 316.238 281.892 316.558 279.7 316.809C277.508 317.061 275.504 317.198 274.061 317.243C273.282 317.312 272.499 317.312 271.721 317.243C272.492 317.095 273.275 317.008 274.061 316.984C275.496 316.855 277.477 316.68 279.661 316.428C281.845 316.177 283.819 315.902 285.246 315.666C286.008 315.524 286.78 315.437 287.555 315.407Z" fill="#263238"/>
<path d="M288.452 322.204C287.713 322.461 286.95 322.647 286.174 322.76C284.754 323.035 282.781 323.355 280.589 323.606C278.397 323.858 276.401 323.995 274.95 324.041C274.172 324.114 273.388 324.114 272.61 324.041C273.381 323.892 274.164 323.805 274.95 323.781C276.385 323.66 278.374 323.477 280.558 323.225C282.742 322.974 284.715 322.699 286.143 322.463C286.905 322.32 287.677 322.234 288.452 322.204Z" fill="#263238"/>
<path d="M287.383 318.722C284.837 319.284 282.262 319.711 279.669 320.002C277.087 320.43 274.483 320.725 271.869 320.886C274.417 320.332 276.991 319.905 279.583 319.606C282.166 319.182 284.769 318.887 287.383 318.722Z" fill="#263238"/>
<path d="M306.08 347.06C306.08 347.06 323.513 335.79 324.854 330.03C326.196 324.269 326.999 319.026 326.999 319.026L308.373 311.49L310.222 318.043C310.222 318.043 303.545 321.922 302.858 326.624C302.406 329.755 293.771 335.12 293.771 335.12C293.053 334.272 292.139 333.602 291.104 333.167C290.07 332.731 288.944 332.541 287.82 332.613L280.566 333.116L285.472 343.913L306.08 347.06Z" fill="#B78876"/>
<path d="M312.889 331.615C312.636 331.766 312.359 331.877 312.07 331.942C311.524 332.118 310.713 332.293 309.73 332.598C308.621 332.983 307.594 333.567 306.704 334.32C305.581 335.255 304.325 336.025 302.975 336.606C300.478 337.645 297.706 337.872 295.066 337.254C294.603 337.166 294.157 337.004 293.748 336.773C293.58 336.681 293.445 336.542 293.358 336.373C293.272 336.205 293.24 336.015 293.264 335.829C293.278 335.713 293.32 335.602 293.388 335.506C293.456 335.41 293.548 335.333 293.654 335.28C293.81 335.227 293.896 335.28 293.896 335.28C293.896 335.28 293.81 335.28 293.693 335.364C293.612 335.422 293.545 335.497 293.497 335.584C293.45 335.672 293.424 335.768 293.42 335.867C293.406 336.024 293.441 336.182 293.523 336.318C293.604 336.455 293.726 336.563 293.873 336.629C294.271 336.82 294.698 336.951 295.136 337.017C297.717 337.531 300.397 337.265 302.819 336.255C304.139 335.682 305.368 334.927 306.47 334.015C307.404 333.257 308.479 332.683 309.637 332.323C310.635 332.049 311.446 331.92 311.977 331.782C312.276 331.703 312.581 331.647 312.889 331.615Z" fill="#AA6550"/>
<path d="M300.815 340.355C300.815 340.416 299.918 339.913 298.436 339.311C296.504 338.539 294.468 338.044 292.391 337.84C291.782 337.779 291.182 337.764 290.605 337.749H290.495L290.433 337.657C289.53 336.277 288.441 335.021 287.196 333.924C286.252 333.093 285.636 332.666 285.636 332.621C285.636 332.575 285.823 332.682 286.12 332.864C286.54 333.13 286.947 333.418 287.336 333.726C288.666 334.785 289.816 336.042 290.745 337.452L290.581 337.36C291.174 337.36 291.782 337.36 292.406 337.452C294.525 337.651 296.594 338.195 298.529 339.06C299.112 339.319 299.678 339.614 300.222 339.943C300.44 340.05 300.64 340.188 300.815 340.355Z" fill="#AA6550"/>
<path d="M305.526 337.261C305.526 337.368 304.348 337.802 302.975 338.564C301.603 339.326 300.596 340.126 300.518 340.035C301.806 338.569 303.577 337.588 305.526 337.261Z" fill="#AA6550"/>
<path d="M314.972 316.992C314.972 317.114 313.755 316.992 312.367 317.335C310.978 317.678 310.027 318.379 309.917 318.28C310.562 317.639 311.373 317.181 312.263 316.955C313.153 316.728 314.089 316.741 314.972 316.992Z" fill="#AA6550"/>
<path d="M60.6607 310.492C62.9539 313.159 66.8305 311.871 68.5075 309.974C70.1845 308.076 70.7305 305.501 71.2219 303.04C72.3295 297.416 73.437 291.526 71.7211 286.047C71.2783 284.38 70.3743 282.864 69.1081 281.666C68.4672 281.078 67.6795 280.665 66.8239 280.469C65.9683 280.272 65.0749 280.298 64.2331 280.545C62.2831 281.231 61.2145 283.251 60.4891 285.117C58.3386 290.707 57.4912 296.694 58.0087 302.643C58.2505 305.417 58.8511 308.29 60.6607 310.439" fill="#FFDAD6"/>
<g opacity="0.2">
<path d="M60.6607 310.492C62.9539 313.159 66.8305 311.871 68.5075 309.974C70.1845 308.076 70.7305 305.501 71.2219 303.04C72.3295 297.416 73.437 291.526 71.7211 286.047C71.2783 284.38 70.3743 282.864 69.1081 281.666C68.4672 281.078 67.6795 280.665 66.8239 280.469C65.9683 280.272 65.0749 280.298 64.2331 280.545C62.2831 281.231 61.2145 283.251 60.4891 285.117C58.3386 290.707 57.4912 296.694 58.0087 302.643C58.2505 305.417 58.8511 308.29 60.6607 310.439" fill="black"/>
</g>
<path d="M69.6073 324.231C72.7897 322.257 76.6975 321.693 80.4493 321.945C82.4695 322.097 84.5911 322.493 86.0809 323.835C87.5707 325.176 88.0543 327.721 86.6191 329.108C85.6775 329.858 84.4961 330.263 83.2807 330.251C80.3791 330.472 77.1187 330.251 74.9659 332.163C73.7335 333.245 73.0003 334.937 71.4637 335.554C70.6906 335.8 69.8564 335.795 69.0869 335.538C68.3173 335.281 67.6541 334.786 67.1971 334.129C66.3119 332.773 65.9962 331.135 66.3157 329.557C66.41 328.482 66.7559 327.443 67.3266 326.52C67.8973 325.596 68.6777 324.813 69.6073 324.231Z" fill="#FFDAD6"/>
<path d="M55.4346 315.064C57.4158 312.306 57.4938 308.526 56.2146 305.394C54.9354 302.262 52.455 299.733 49.6938 297.721C46.4254 295.356 42.7161 293.638 38.7738 292.661C37.2431 292.21 35.6313 292.086 34.047 292.295C33.2693 292.421 32.5338 292.728 31.9027 293.189C31.2715 293.651 30.763 294.254 30.42 294.947C29.523 297.066 30.7866 299.435 32.097 301.34C34.4025 304.7 36.9712 307.879 39.78 310.85C42.0498 313.235 44.616 315.559 47.8218 316.451C51.0276 317.342 54.2334 316.916 55.692 314.675" fill="#FFDAD6"/>
<path d="M64.4437 353.4C64.5109 352.967 64.5318 352.527 64.5061 352.09C64.5061 351.145 64.5061 349.956 64.5061 348.539C64.5264 346.784 64.6409 345.031 64.8493 343.288C65.1302 341.165 65.5867 339.068 66.2143 337.017C66.8217 334.969 67.7252 333.017 68.8975 331.218C69.8515 329.753 71.1278 328.514 72.6337 327.591C73.6541 326.979 74.7679 326.528 75.9331 326.258C76.3754 326.196 76.8112 326.097 77.2357 325.961C76.7864 325.94 76.3362 325.971 75.8941 326.052C74.6758 326.254 73.5035 326.664 72.4309 327.264C70.8411 328.178 69.488 329.437 68.4763 330.944C67.2551 332.774 66.3143 334.769 65.6839 336.865C65.0501 338.947 64.6012 341.078 64.3423 343.235C64.1601 344.995 64.0845 346.763 64.1161 348.531C64.1161 350.055 64.2097 351.259 64.2643 352.097C64.2728 352.537 64.333 352.974 64.4437 353.4Z" fill="#263238"/>
<path d="M64.4435 350.665C64.4642 350.464 64.4642 350.263 64.4435 350.063C64.4435 349.613 64.3499 349.042 64.2875 348.348C64.1471 346.862 63.9521 344.706 63.7883 342.039C63.4373 336.705 63.2345 329.329 63.3983 321.183C63.5621 313.037 64.1159 305.669 64.7477 300.365C64.8881 299.032 65.0363 297.835 65.1923 296.784C65.3483 295.732 65.4575 294.825 65.5823 294.094C65.7071 293.362 65.7695 292.836 65.8397 292.387C65.8807 292.189 65.8991 291.987 65.8943 291.785C65.8121 291.972 65.757 292.17 65.7305 292.372C65.6369 292.814 65.5199 293.37 65.3717 294.056C65.2235 294.741 65.0597 295.694 64.8881 296.746C64.7165 297.797 64.5293 298.986 64.3577 300.319C63.4739 307.24 62.9714 314.202 62.8523 321.175C62.6885 329.336 62.9459 336.735 63.3983 342.069C63.6089 344.736 63.8663 346.893 64.0769 348.371C64.1783 349.064 64.2719 349.628 64.3343 350.078C64.35 350.277 64.3866 350.473 64.4435 350.665Z" fill="#263238"/>
<path d="M63.1799 336.461C63.1727 335.86 63.1153 335.262 63.0083 334.67C62.8289 333.527 62.5169 331.881 62.0021 329.87C61.3804 327.522 60.6252 325.209 59.7401 322.943C58.674 320.159 57.4072 317.452 55.9493 314.843C53.3882 310.028 49.9523 305.709 45.8093 302.095C45.0873 301.481 44.3295 300.908 43.5395 300.38C43.1963 300.144 42.8921 299.908 42.5801 299.725L41.7221 299.245C41.1996 298.931 40.6549 298.653 40.0919 298.414C40.0139 298.536 42.4319 299.649 45.5519 302.384C49.5673 306.04 52.9147 310.339 55.4501 315.094C56.9032 317.675 58.1825 320.345 59.2799 323.088C60.3095 325.618 61.0583 327.957 61.6199 329.946C62.1815 331.935 62.5481 333.558 62.7899 334.686C62.87 335.287 63.0004 335.881 63.1799 336.461Z" fill="#263238"/>
</svg>
